<svg width="28" height="32" xmlns="http://www.w3.org/2000/svg">
    <g fill-rule="nonzero" fill="none" opacity=".8">
        <path d="M17.049 9.088v2.123h-6.48V9.088c0-1.64 1.416-2.972 3.156-2.972h.164c1.744 0 3.16 1.334 3.16 2.972z" fill="#019BF2"/>
        <path d="M9.568 11.34c-.446.12-.82.324-1.116.612-.533.512-.804 1.264-.804 2.233v.006l.002.382-.002 4.99c0 .967.271 1.717.804 2.23.506.493 1.231.742 2.153.742h6.385c.921 0 1.648-.246 2.16-.74.53-.51.807-1.26.822-2.227V14.18c-.012-.967-.292-1.719-.821-2.23a2.53 2.53 0 0 0-1.101-.608V9.088c0-2.204-1.864-3.993-4.16-3.993h-.165c-2.293 0-4.157 1.787-4.157 3.993v2.251zm17.826-6.224c0 .438.027 10.734-.713 15.186-.97 5.77-11.387 11.002-12.573 11.581a1.031 1.031 0 0 1-.413.089.929.929 0 0 1-.409-.094C12.101 31.3 1.696 26.066.726 20.3-.027 15.846 0 5.549 0 5.112c0-.309.139-.597.374-.787a.954.954 0 0 1 .83-.177c2.547.418 3.893-.515 5.604-1.688C8.496 1.304 10.408 0 13.69 0h.015c3.282.003 5.193 1.31 6.877 2.465 1.71 1.173 3.064 2.093 5.649 1.678a.982.982 0 0 1 .797.223c.215.192.361.46.366.75z" fill="#019DF4"/>
        <path d="M11.34 14.193c-.367.006-1.044.191-1.353 1.484a4.516 4.516 0 0 0-.071 1.85c.106.644.295 1.2.422 1.506.043.106.111.216.163.284.151.194.402.182.507.129.115-.058.247-.198.199-.517a4.274 4.274 0 0 0-.127-.505c-.115-.385-.268-.848-.282-1.18-.017-.442.153-.5.266-.525.19-.043.35.17.501.439.181.32.491.886.744 1.32.228.39.65.809 1.326.78.69-.03 1.198-.298 1.46-1.146.196-.635.33-1.109.544-1.594.248-.559.577-.857.855-.766.258.085.322.342.325.721.003.336-.035.705-.065.977-.01.1-.03.297-.022.407.016.217.107.433.346.467.253.038.457-.17.538-.421.032-.099.06-.25.074-.357a6.57 6.57 0 0 0 .06-1.46c-.039-.65-.163-1.24-.38-1.752-.206-.49-.538-.803-.965-.83-.471-.031-1.013.289-1.297.91-.261.574-.47 1.162-.598 1.462-.129.304-.318.492-.61.524-.355.038-.662-.226-.886-.604-.196-.329-.584-.955-.792-1.165-.195-.198-.418-.445-.882-.438" fill="#019DF4"/>
    </g>
</svg>
