<svg xmlns="http://www.w3.org/2000/svg" width="153" height="191">
    <defs>
        <clipPath id="clip-path">
            <path id="Rect치ngulo_3201" data-name="Rect치ngulo 3201" class="cls-1" transform="translate(740.725 71.429)" d="M0 0h153v191H0z"/>
        </clipPath>
        <clipPath id="clip-path-2">
            <path id="Rect치ngulo_3200" data-name="Rect치ngulo 3200" style="fill:none" d="M0 0h12.006v38.681H0z"/>
        </clipPath>
        <style>
            .cls-1{fill:#fff}.cls-23,.cls-35{fill:none}.cls-7{fill:#ec624b}.cls-8{fill:#e5e5e5}.cls-9{fill:#019df4}.cls-10{fill:#3f3d54}.cls-11{fill:#00425e}.cls-12{fill:#cbcbcb}.cls-14{fill:#009efb}.cls-16{fill:#036995}.cls-19{fill:#00273b}.cls-31{fill:#0b2739}.cls-23{stroke:#fff;stroke-width:1.974px}.cls-23,.cls-35{stroke-linecap:round}.cls-27,.cls-29,.cls-31,.cls-33{opacity:.98}.cls-27{fill:#86888c}.cls-29{fill:#c18773}.cls-33{fill:#d3d4d3}.cls-35{stroke:#d3d4d3;stroke-width:.658px}.cls-36{fill:#aadaf5}.cls-37{fill:#d8f1ff}.cls-38{fill:#f8cccc}
        </style>
    </defs>
    <g id="Enmascarar_grupo_133" data-name="Enmascarar grupo 133" transform="translate(-740.725 -71.429)" style="opacity:.4;clip-path:url(#clip-path)">
        <g id="Grupo_5991" data-name="Grupo 5991" transform="translate(744.725 82.609)" style="opacity:.842">
            <g id="Grupo_5986" data-name="Grupo 5986" transform="translate(0 43.963)" style="opacity:.428">
                <path id="Trazado_4446" data-name="Trazado 4446" d="M257.86 132.528c12.252 7.843 17.5 9.833 17.5 9.833 2.941 1.022 3.951 1.748 3.951 4v42.436a4.037 4.037 0 0 1-4 4.072 105.921 105.921 0 0 1-20.154-11.9c-8.96-7.034-11.862-15.386-11.862-17.635l.119-50.153c.004-2.249 2.192 11.505 14.446 19.347z" transform="translate(-243.183 -83.986)" style="fill:#185e8b"/>
                <path id="Trazado_4447" data-name="Trazado 4447" class="cls-7" d="M262.711 75.842c2.478-1.046 3.128.486 3.128 2.734l.435 43.9c0 2.248-.1 2.273-4.479 4.009a32.594 32.594 0 0 1-12.044-9.525c-2.97-3.677-7.053-10.123-6.564-15.218.498-16.178 19.524-25.9 19.524-25.9z" transform="translate(-243.146 -75.506)"/>
                <path id="Trazado_4300" data-name="Trazado 4300" class="cls-1" d="M244.638 114.092s5.122-4.47 8.154-4.712c.735.034.873.442.457.721a34.606 34.606 0 0 0-8.119 5.169 33.333 33.333 0 0 0-.492-1.178z" transform="translate(-243.504 -83.181)"/>
                <path id="Trazado_4301" data-name="Trazado 4301" class="cls-1" d="M247.795 121.665a13.6 13.6 0 0 1 5.787-2.856c.735.034.718.631.388.78a12.7 12.7 0 0 0-5.488 3.177 7.157 7.157 0 0 1-.687-1.101z" transform="translate(-244.261 -85.317)"/>
                <path id="Trazado_4302" data-name="Trazado 4302" class="cls-1" d="M251.8 127.357a9.785 9.785 0 0 1 3.372-1.357.433.433 0 0 1 .488.374.444.444 0 0 1-.127.378 12.718 12.718 0 0 0-3.139 1.354 45.478 45.478 0 0 1-.594-.749z" transform="translate(-245.222 -86.945)"/>
                <g id="Grupo_5936" data-name="Grupo 5936" transform="translate(2.242 56.664)">
                    <path id="Trazado_4351" data-name="Trazado 4351" class="cls-8" d="m275.822 169.4-.014-.112.369.259.014.112z" transform="translate(-253.221 -153.418)"/>
                    <path id="Trazado_4352" data-name="Trazado 4352" class="cls-8" d="m268.245 164.417-.737-.517-.014-.111.737.517zm-1.469-1.032-.728-.512-.014-.111.727.509zm-1.451-1.018-.718-.506-.014-.111.72.505zm-1.434-1.008-.71-.5-.014-.11.711.5zm-1.416-1-.7-.493-.014-.109.7.493zm-1.4-.984-.694-.488-.014-.108.694.487zm-1.383-.975-.686-.482-.014-.108.686.481zm-1.368-.961-.678-.476-.015-.108.677.476zm-1.351-.949-.67-.471-.014-.108.67.47zm-1.336-.939-.664-.466-.015-.107.662.465zm-1.32-.927-.655-.459-.015-.106.655.458zm-1.305-.917-.647-.454-.015-.106.647.454zm-1.292-.908-.64-.449-.015-.105.64.449zm-1.276-.9-.632-.444-.015-.105.632.445zm-1.26-.886-.627-.44-.015-.1.626.439zm-1.25-.876-.617-.435-.015-.1.618.435z" transform="translate(-246.385 -148.96)"/>
                    <path id="Trazado_4353" data-name="Trazado 4353" class="cls-8" d="m246.111 148.876-.016-.106.3.215.016.1z" transform="translate(-246.095 -148.77)"/>
                    <path id="Trazado_4354" data-name="Trazado 4354" class="cls-8" d="m262.442 171.734-.015-.107.333.249.014.107z" transform="translate(-250.012 -153.949)"/>
                    <path id="Trazado_4355" data-name="Trazado 4355" class="cls-8" d="m258.6 169.054-.654-.485-.015-.105.655.486zm-1.305-.967-.648-.48-.014-.1.648.48zm-1.295-.958-.639-.474-.014-.1.64.475zm-1.276-.946-.633-.469-.014-.1.633.469zm-1.262-.937-.626-.464-.014-.1.626.464zm-1.251-.925-.619-.459-.014-.1.619.458zm-1.235-.917-.61-.453-.015-.1.613.454zm-1.219-.9-.606-.449-.015-.1.606.449z" transform="translate(-246.824 -151.756)"/>
                    <path id="Trazado_4356" data-name="Trazado 4356" class="cls-8" d="m247.961 161.182-.015-.1.3.226.014.1z" transform="translate(-246.539 -151.559)"/>
                    <path id="Trazado_4357" data-name="Trazado 4357" class="cls-8" d="m255.006 171.519-.015-.1.314.241.014.1z" transform="translate(-248.228 -153.901)"/>
                    <path id="Trazado_4358" data-name="Trazado 4358" class="cls-8" d="m253.173 170.2-.636-.483-.014-.1.636.483zm-1.267-.963-.629-.477-.014-.1.629.477zm-1.254-.951-.622-.473-.015-.1.622.472z" transform="translate(-247.035 -153.061)"/>
                    <path id="Trazado_4359" data-name="Trazado 4359" class="cls-8" d="m248.821 166.906-.015-.1.3.23.015.1z" transform="translate(-246.745 -152.856)"/>
                    <path id="Trazado_4360" data-name="Trazado 4360" class="cls-8" d="m256.423 181.3-.014-.1.313.249.014.1z" transform="translate(-248.568 -156.118)"/>
                    <path id="Trazado_4361" data-name="Trazado 4361" class="cls-8" d="m254.6 179.931-.633-.5-.014-.1.633.5zm-1.26-1-.628-.493-.014-.1.626.494zm-1.251-.985-.617-.488-.014-.1.619.488z" transform="translate(-247.381 -155.249)"/>
                    <path id="Trazado_4362" data-name="Trazado 4362" class="cls-8" d="m250.268 176.53-.015-.1.3.238.014.1z" transform="translate(-247.092 -155.037)"/>
                    <path id="Trazado_4363" data-name="Trazado 4363" class="cls-9" d="m252.521 176.778 18.971 14.967a1.282 1.282 0 0 0 .7.316.6.6 0 0 0 .514-.241 1.539 1.539 0 0 0 .278-.744 4.517 4.517 0 0 0-.009-1.189L270.71 171.3l-.042-.028-6.51 9.3-3.125-6.572a1.758 1.758 0 0 0-.092-.171 1.285 1.285 0 0 0-.1-.142.892.892 0 0 0-.1-.108.429.429 0 0 0-.1-.07.251.251 0 0 0-.067-.021.154.154 0 0 0-.059 0 .145.145 0 0 0-.05.027.209.209 0 0 0-.043.051l-3.016 4.642-2.187-4.638a1.818 1.818 0 0 0-.156-.27.81.81 0 0 0-.157-.17.234.234 0 0 0-.141-.058.125.125 0 0 0-.107.069l-.3.509-.662 1.12-.714 1.206c-.206.366-.382.658-.461.802z" transform="translate(-247.636 -153.868)"/>
                    <path id="Trazado_4364" data-name="Trazado 4364" class="cls-10" d="m252.427 176.77-.046-.1 2.227-3.626a.142.142 0 0 1 .12-.075.26.26 0 0 1 .158.064.886.886 0 0 1 .176.191 1.945 1.945 0 0 1 .174.3l2.145 4.545 3-4.62a.155.155 0 0 1 .129-.079.29.29 0 0 1 .169.067.947.947 0 0 1 .186.2 2.006 2.006 0 0 1 .183.312l3.081 6.475 6.545-9.358.053.11-6.58 9.4L261.02 174a1.659 1.659 0 0 0-.161-.276.867.867 0 0 0-.164-.175.251.251 0 0 0-.15-.06.136.136 0 0 0-.114.07l-3.029 4.661-2.192-4.646a1.81 1.81 0 0 0-.154-.266.772.772 0 0 0-.156-.168.224.224 0 0 0-.139-.057.124.124 0 0 0-.106.067z" transform="translate(-247.602 -153.822)"/>
                    <path id="Elipse_881" data-name="Elipse 881" class="cls-11" d="M255.02 170.815a.135.135 0 0 1 .124.01.494.494 0 0 1 .143.121 1.307 1.307 0 0 1 .144.213 2.02 2.02 0 0 1 .127.285 2.087 2.087 0 0 1 .087.306 1.483 1.483 0 0 1 .03.266.662.662 0 0 1-.025.2.169.169 0 0 1-.081.107.138.138 0 0 1-.124-.011.5.5 0 0 1-.143-.123 1.242 1.242 0 0 1-.143-.216 2.093 2.093 0 0 1-.128-.283 2.236 2.236 0 0 1-.086-.305 1.46 1.46 0 0 1-.03-.264.636.636 0 0 1 .024-.2.171.171 0 0 1 .081-.106z" transform="translate(-248.21 -153.762)"/>
                    <path id="Elipse_882" data-name="Elipse 882" class="cls-11" d="M262.464 171a.151.151 0 0 1 .132.011.524.524 0 0 1 .15.126 1.31 1.31 0 0 1 .151.22 2.13 2.13 0 0 1 .22.609 1.4 1.4 0 0 1 .03.276.606.606 0 0 1-.03.208.18.18 0 0 1-.087.111.153.153 0 0 1-.131-.012.518.518 0 0 1-.15-.126 1.347 1.347 0 0 1-.15-.22 2.1 2.1 0 0 1-.132-.293 2.166 2.166 0 0 1-.09-.314 1.452 1.452 0 0 1-.029-.275.623.623 0 0 1 .029-.208.182.182 0 0 1 .087-.113z" transform="translate(-249.993 -153.805)"/>
                    <path id="Elipse_883" data-name="Elipse 883" class="cls-11" d="M275.505 168.118a.177.177 0 0 1 .149.009.564.564 0 0 1 .167.132 1.345 1.345 0 0 1 .165.234 2.016 2.016 0 0 1 .143.312 2.109 2.109 0 0 1 .093.334 1.411 1.411 0 0 1 .027.294.653.653 0 0 1-.037.223.2.2 0 0 1-.1.12.176.176 0 0 1-.15-.012.558.558 0 0 1-.167-.133 1.342 1.342 0 0 1-.165-.232 2.109 2.109 0 0 1-.144-.312 2.2 2.2 0 0 1-.092-.333 1.523 1.523 0 0 1-.027-.294.667.667 0 0 1 .037-.222.206.206 0 0 1 .101-.12z" transform="translate(-253.115 -153.151)"/>
                </g>
            </g>
            <path id="Trazado_4442" data-name="Trazado 4442" class="cls-12" d="m472.494 212.189-18.575-.478a1.145 1.145 0 0 1-.306-.051.908.908 0 0 1-.25-.118.587.587 0 0 1-.165-.172.376.376 0 0 1-.058-.2.368.368 0 0 1 .066-.2.563.563 0 0 1 .173-.162.876.876 0 0 1 .25-.107 1.148 1.148 0 0 1 .308-.032l18.574.481a1.133 1.133 0 0 1 .3.051.92.92 0 0 1 .251.118.586.586 0 0 1 .166.171.383.383 0 0 1 .059.2.373.373 0 0 1-.065.2.566.566 0 0 1-.171.162.871.871 0 0 1-.25.105 1.1 1.1 0 0 1-.307.032z" transform="translate(-313.504 -59.765)"/>
            <g id="Grupo_5979" data-name="Grupo 5979" transform="translate(73.572 6.052)" style="opacity:.7">
                <path id="Trazado_4365" data-name="Trazado 4365" class="cls-14" d="M373.332 58.175 364.4 89.234l51.365 13.952 8.931-31.06z" transform="translate(-364.401 -31.268)"/>
                <path id="Trazado_4366" data-name="Trazado 4366" d="M373.332 58.175 364.4 89.234l51.365 13.952 8.931-31.06z" transform="translate(-364.401 -31.268)" style="isolation:isolate;opacity:.2;fill:#fff"/>
                <path id="Trazado_4367" data-name="Trazado 4367" class="cls-16" d="m377.013 23.486 65.415 17.766a2.5 2.5 0 0 1 1.145 4.085l-16.559 18.219L375.652 49.6l-2.387-22.857a3.038 3.038 0 0 1 2.677-3.346 2.943 2.943 0 0 1 1.071.089z" transform="translate(-366.523 -23.385)"/>
                <path id="Trazado_4368" data-name="Trazado 4368" d="m376.5 27.591 65.938 18.089-15.705 17.28-47.917-13.192z" transform="translate(-367.302 -24.338)" style="fill:#a4defc"/>
                <path id="Trazado_4369" data-name="Trazado 4369" class="cls-16" d="m373.592 57.283-8.931 31.06 51.365 13.952 8.931-31.06z" transform="translate(-364.463 -31.066)"/>
                <path id="Trazado_4370" data-name="Trazado 4370" class="cls-14" d="M443.616 41.282S411.662 25.716 378.2 23.515z" transform="translate(-367.71 -23.415)"/>
                <path id="Trazado_4371" data-name="Trazado 4371" d="M443.616 41.282S411.662 25.716 378.2 23.515z" transform="translate(-367.71 -23.415)" style="isolation:isolate;opacity:.2"/>
                <path id="Trazado_4372" data-name="Trazado 4372" class="cls-19" d="M419.294 36.73a.55.55 0 1 1 .4.555.491.491 0 0 1-.4-.555z" transform="translate(-377.564 -26.34)"/>
                <path id="Trazado_4373" data-name="Trazado 4373" class="cls-19" d="m376.577 59.288-5.558 18.992 47.828 12.991 5.559-18.992z" transform="translate(-365.988 -31.52)"/>
                <path id="Trazado_4374" data-name="Trazado 4374" class="cls-19" d="m389.7 90.446-2.2 7.517 18.929 5.143 2.2-7.518z" transform="translate(-369.941 -38.58)"/>
                <path id="Trazado_4375" data-name="Trazado 4375" d="m375.271 60.293.865-3.01L427.5 71.236l-8.93 31.064-7.051-1.916c-7.411-20.469-27.656-34.767-36.248-40.091z" transform="translate(-367.008 -31.066)" style="opacity:.1;isolation:isolate"/>
            </g>
            <g id="Grupo_5989" data-name="Grupo 5989" transform="translate(246.285 39.115)" style="opacity:.73">
                <path id="Trazado_4452" data-name="Trazado 4452" d="M601.629 66.134s14.241 3.931 30.666 18.359c.326.348 7.333 5.033 7.082 16.567s-13.921 24.873-13.921 24.873.017 1.917 0 4.173a70.736 70.736 0 0 0-24.911-12.523 2.019 2.019 0 0 1-2-2.036l1.085-47.378a2.019 2.019 0 0 1 1.999-2.035z" transform="translate(-598.543 -66.134)" style="fill:#0b2739"/>
                <path id="Trazado_4448" data-name="Trazado 4448" class="cls-23" d="M621.365 93.948c9.281 3.767 19.508 15.938 19.772 16.21" transform="translate(-604.016 -72.436)"/>
                <path id="Trazado_4449" data-name="Trazado 4449" class="cls-23" d="M621.365 104.428a62.511 62.511 0 0 1 9.5 5.951 48.389 48.389 0 0 1 8.443 7.6" transform="translate(-604.016 -74.81)"/>
                <path id="Trazado_4450" data-name="Trazado 4450" class="cls-23" d="M621.534 114.012a55.469 55.469 0 0 1 8.13 5.067c3.872 2.97 6.977 5.5 7.241 5.776" transform="translate(-604.057 -76.982)"/>
                <path id="Trazado_4453" data-name="Trazado 4453" class="cls-7" d="M635.7 133.567s10.45-9.055 11.62-22.08c.391 23.393.7 51.116.7 53.365-2.857 11.419-10.316 20.18-11.148 19.991a4.037 4.037 0 0 1-4-4.072l.587-42.357c.002-2.249.011-3.662 2.241-4.847z" transform="translate(-606.776 -76.41)"/>
                <g id="Grupo_5988" data-name="Grupo 5988" transform="translate(29.099 57.423)">
                    <g id="Grupo_5987" data-name="Grupo 5987" style="clip-path:url(#clip-path-2)">
                        <g id="Enmascarar_grupo_131" data-name="Enmascarar grupo 131" transform="translate(-1.638 -21.905)">
                            <g id="Grupo_5976" data-name="Grupo 5976">
                                <path id="Trazado_4333" data-name="Trazado 4333" d="M671.076 152.511 637.062 177.1a2.644 2.644 0 0 1-.932.454 1.2 1.2 0 0 1-.763-.051 1.054 1.054 0 0 1-.514-.524 2.184 2.184 0 0 1-.185-.967l.2-36.748a3.835 3.835 0 0 1 .155-1.018 5.154 5.154 0 0 1 .412-1.01 4.887 4.887 0 0 1 .607-.888 3.362 3.362 0 0 1 .739-.648l37.564-23.439a1.219 1.219 0 0 1 .608-.207.668.668 0 0 1 .47.174 1.045 1.045 0 0 1 .288.509 2.416 2.416 0 0 1 .061.806l-2.49 34.807a5.178 5.178 0 0 1-.233 1.166 7 7 0 0 1-.492 1.168 6.636 6.636 0 0 1-.68 1.039 4.292 4.292 0 0 1-.801.788z" transform="translate(-634.667 -112.057)" style="fill:transparent"/>
                                <path id="Trazado_4335" data-name="Trazado 4335" class="cls-8" d="m682.031 129.171.007-.1.424-.277-.007.1z" transform="translate(-646.026 -115.849)"/>
                                <path id="Trazado_4336" data-name="Trazado 4336" class="cls-8" d="m671.844 129.978-.864.563.006-.1.864-.563zm-1.732 1.129-.872.568.006-.1.871-.568zm-1.745 1.139-.879.574.005-.1.88-.574zM666.6 133.4l-.888.579.005-.1.888-.579zm-1.78 1.16-.9.584v-.1l.9-.584zm-1.8 1.17-.9.589.005-.1.9-.589zm-1.815 1.182-.912.595v-.1l.912-.595zm-1.828 1.192-.921.6v-.1l.92-.6zm-1.846 1.2-.928.606v-.1l.929-.606zm-1.862 1.214-.937.611v-.1l.938-.611zm-1.879 1.226-.946.617v-.1l.947-.616zm-1.9 1.238-.956.623v-.1l.956-.623zm-1.915 1.249-.965.629v-.1l.964-.629zm-1.932 1.261-.974.635v-.1l.977-.636zm-1.951 1.272-.983.641v-.1l.987-.642zm-1.971 1.285-.992.647v-.1l.992-.647z" transform="translate(-636.699 -116.095)"/>
                                <path id="Trazado_4337" data-name="Trazado 4337" class="cls-8" d="M641.176 155.342v-.1l.5-.324v.1z" transform="translate(-636.228 -121.768)"/>
                                <path id="Trazado_4338" data-name="Trazado 4338" class="cls-8" d="M662.494 153.276v-.1l.45-.306v.1z" transform="translate(-641.34 -121.305)"/>
                                <path id="Trazado_4339" data-name="Trazado 4339" class="cls-8" d="m656.9 154.148-.9.61v-.1l.9-.611zm-1.81 1.221-.911.614v-.1l.911-.613zm-1.826 1.232-.919.62v-.1l.92-.619zm-1.843 1.242-.927.626v-.1l.927-.625zm-1.859 1.253-.936.632v-.1l.937-.631zm-1.875 1.266-.946.637v-.1l.946-.637zm-1.9 1.277-.953.643v-.1l.954-.643zm-1.91 1.289-.962.649v-.1l.966-.65z" transform="translate(-636.646 -121.571)"/>
                                <path id="Trazado_4340" data-name="Trazado 4340" class="cls-8" d="M641.007 167.511v-.1l.489-.326v.1z" transform="translate(-636.188 -124.524)"/>
                                <path id="Trazado_4341" data-name="Trazado 4341" class="cls-8" d="M650.529 166.676v-.1l.468-.319v.1z" transform="translate(-638.471 -124.338)"/>
                                <path id="Trazado_4342" data-name="Trazado 4342" class="cls-8" d="m647.732 167.62-.964.662v-.1l.964-.661zm-1.935 1.323-.973.667v-.1l.975-.666zm-1.951 1.336-.983.673v-.1l.984-.672z" transform="translate(-636.633 -124.624)"/>
                                <path id="Trazado_4343" data-name="Trazado 4343" class="cls-8" d="M640.929 173.133v-.1l.485-.331v.1z" transform="translate(-636.169 -125.798)"/>
                                <path id="Trazado_4344" data-name="Trazado 4344" class="cls-8" d="M650.28 175.994v-.094l.464-.324v.1z" transform="translate(-638.411 -126.448)"/>
                                <path id="Trazado_4345" data-name="Trazado 4345" class="cls-8" d="m647.517 176.95-.95.669v-.1l.95-.668zm-1.91 1.341-.962.674v-.1l.964-.675zm-1.927 1.353-.97.681v-.1l.971-.681z" transform="translate(-636.596 -126.739)"/>
                                <path id="Trazado_4346" data-name="Trazado 4346" class="cls-8" d="M640.8 182.534v-.1l.479-.335v.1z" transform="translate(-636.138 -127.927)"/>
                                <path id="Trazado_4347" data-name="Trazado 4347" class="cls-1" d="m644.321 169 25.542-17.933a4.466 4.466 0 0 0 .865-.827 6.9 6.9 0 0 0 .731-1.109 7.341 7.341 0 0 0 .525-1.254 5.47 5.47 0 0 0 .246-1.259l1.059-16.259-.05.033-11.105 20.829-3.093-2.033a.246.246 0 0 0-.1-.036.327.327 0 0 0-.113.008.507.507 0 0 0-.125.051.817.817 0 0 0-.131.092 1.239 1.239 0 0 0-.1.094c-.031.034-.062.071-.092.111s-.058.08-.087.124-.052.088-.077.135l-5.953 11.154-2.411-1.4a.274.274 0 0 0-.189-.028.6.6 0 0 0-.22.1 1.175 1.175 0 0 0-.223.2 1.676 1.676 0 0 0-.2.295l-.647 1.222-1.439 2.732-1.572 2.977c-.471.903-.856 1.63-1.041 1.981z" transform="translate(-636.982 -116.204)"/>
                                <path id="Trazado_4348" data-name="Trazado 4348" class="cls-10" d="m644.15 169.12-.055-.029 4.852-9.075a1.86 1.86 0 0 1 .223-.331 1.305 1.305 0 0 1 .25-.231.652.652 0 0 1 .246-.106.3.3 0 0 1 .213.03l2.363 1.37 5.924-11.1a1.812 1.812 0 0 1 .217-.324 1.253 1.253 0 0 1 .242-.222.6.6 0 0 1 .237-.1.28.28 0 0 1 .2.038l3.048 2.006 11.165-20.94.046.037-11.221 21.038-3.1-2.036a.249.249 0 0 0-.178-.034.521.521 0 0 0-.209.09 1.072 1.072 0 0 0-.213.2 1.6 1.6 0 0 0-.192.285l-5.978 11.2-2.415-1.4a.269.269 0 0 0-.188-.026.581.581 0 0 0-.217.1 1.111 1.111 0 0 0-.22.2 1.65 1.65 0 0 0-.2.292z" transform="translate(-636.928 -116.146)"/>
                                <path id="Elipse_878" data-name="Elipse 878" class="cls-11" d="M650.71 165.7a1.279 1.279 0 0 1 .207-.229.716.716 0 0 1 .208-.128.317.317 0 0 1 .185-.016.23.23 0 0 1 .139.1.438.438 0 0 1 .064.206.938.938 0 0 1-.02.268 1.506 1.506 0 0 1-.1.3 1.677 1.677 0 0 1-.167.29 1.216 1.216 0 0 1-.207.229.7.7 0 0 1-.208.128.323.323 0 0 1-.183.019.233.233 0 0 1-.14-.1.436.436 0 0 1-.063-.2.941.941 0 0 1 .019-.269 1.5 1.5 0 0 1 .1-.3 1.677 1.677 0 0 1 .166-.298z" transform="translate(-638.447 -124.125)"/>
                                <path id="Elipse_879" data-name="Elipse 879" class="cls-11" d="M662.68 152.306a1.2 1.2 0 0 1 .2-.222.647.647 0 0 1 .2-.12.288.288 0 0 1 .179-.011.228.228 0 0 1 .131.107.481.481 0 0 1 .058.21 1 1 0 0 1-.023.269 1.537 1.537 0 0 1-.1.294 1.623 1.623 0 0 1-.163.285 1.2 1.2 0 0 1-.2.222.656.656 0 0 1-.2.121.284.284 0 0 1-.177.011.225.225 0 0 1-.131-.106.471.471 0 0 1-.059-.21 1 1 0 0 1 .023-.269 1.49 1.49 0 0 1 .1-.295 1.606 1.606 0 0 1 .162-.286z" transform="translate(-641.317 -121.094)"/>
                                <path id="Elipse_880" data-name="Elipse 880" class="cls-11" d="M681.867 128.2a1.093 1.093 0 0 1 .192-.212.56.56 0 0 1 .189-.108.247.247 0 0 1 .163 0 .229.229 0 0 1 .119.118.519.519 0 0 1 .05.217 1.079 1.079 0 0 1-.028.271 1.506 1.506 0 0 1-.1.292 1.576 1.576 0 0 1-.157.278 1.136 1.136 0 0 1-.191.211.565.565 0 0 1-.19.111.251.251 0 0 1-.165 0 .232.232 0 0 1-.12-.118.529.529 0 0 1-.049-.216 1.083 1.083 0 0 1 .028-.272 1.6 1.6 0 0 1 .1-.293 1.546 1.546 0 0 1 .159-.279z" transform="translate(-645.918 -115.639)"/>
                            </g>
                        </g>
                    </g>
                </g>
            </g>
            <path id="Trazado_4458" data-name="Trazado 4458" d="M406.424 78.381c-7.3 7.191-15.512 7.832-18.837 13s-19.218 40.225-20.572 40.546-18.2-21.524-19.472-21.524h-5.666s-8.592 3.669-7.369 4.19 17.968 25.727 18.63 26.478 4.159 5.328 5.8 6.846 5.168 5.153 7.471 5.7 5.837.4 7.383-1.61 15.692-20.415 19.227-25.61a15.517 15.517 0 0 1 .209 2.2c.356 6.383.332 25.339.332 25.339l26 6.5h22.631l.471-8.6s2.224-25.048 2.807-25.215 5.479 9.013 6.368 10.268 3.157 5 4.115 6.088 8.938 5.237 11.245 6.583 31.162 15.059 31.75 15.059 3.222-2.432 3.56-4.007 1.765-8.515 1.213-8.878-26.835-16.389-28.4-17.555-4.425-2.42-7.8-9.447-11.923-22.9-12.163-23.743-4.14-8.635-4.983-9.526-2.046-2.421-10.858-6.75-16.462-8.478-16.908-8.75-2.725-.034-3.067.679-5.816-5.451-13.117 1.739z" transform="translate(-284.234 -28.995)" style="opacity:.98;fill:#f8f9f9"/>
            <path id="Trazado_4459" data-name="Trazado 4459" class="cls-27" d="M344.249 120.551s5.659-.346 5.562 0-.135 1.662-2.548 2.6-3.014-2.6-3.014-2.6z" transform="translate(-284.858 -39.314)"/>
            <path id="Trazado_4460" data-name="Trazado 4460" class="cls-27" d="M407.2 120.524c.532.855 1.345 16.219 1.345 16.219s-9.064 12.452-9.287 12.575 6.229-23.311 6.508-24.673c.062-.305-.123.607 0 0 .29-1.426 1.023-4.784 1.434-4.121z" transform="translate(-299.258 -39.323)"/>
            <path id="Trazado_4461" data-name="Trazado 4461" class="cls-27" d="M478 138.18s-6.061-12.532-6.886-13.059 4.471 34.554 4.471 34.554z" transform="translate(-317.984 -40.382)"/>
            <path id="Trazado_4462" data-name="Trazado 4462" d="M432.179 90.631a16.629 16.629 0 0 0-3.807 11.857c.585 7.125 1.744 8.44 1.744 8.44s.044.9 2.922 3.621 10.284 11.443 10.284 11.443 3.568 4.776 3.707 7.166-1.564 9.83-1.564 9.83-1.179 2.1-3.6 0a14.866 14.866 0 0 0-3.831-2.637s-1.067-.624-1.829-4.416-6.088-10.5-6.088-10.5-6.375-10.757-6.907-11.709-2.982-6.731 0-12.267a71.216 71.216 0 0 1 7.524-10.823z" transform="translate(-305.342 -32.569)" style="opacity:.98;fill:#ec624b"/>
            <path id="Trazado_4466" data-name="Trazado 4466" class="cls-29" d="M315.842 118.918s3.229 3.253 6.478 3.582 5.6 1.335 6.306 1.316 6.747-.425 8.1-1.644-7.433-6.54-8.1-6.522.2-.456-8.465 0-12.638.232-14.413.435-2.9 2.749.455 2.832 9.639.001 9.639.001z" transform="translate(-273.504 -38.193)"/>
            <path id="Trazado_4467" data-name="Trazado 4467" class="cls-27" d="M551.9 182.776c.37-.724 2.593 1.272 2.451 2.307s-2.3 3.456-2.86 3.789.043-5.372.409-6.096z" transform="translate(-338.862 -53.412)"/>
            <path id="Trazado_4468" data-name="Trazado 4468" class="cls-29" d="m570.411 171.822 4.782 3.385s1.947 2.813-2.836 1.513-8.526-2.756-10.338-1.069-4.194 5.647-6.978 6.225-2.767-.835-3.122-.921.411-4.357 2.252-6.362a75.692 75.692 0 0 1 7.182-6.006c.365-.284 1.8-2.135 3.652-.519a49.022 49.022 0 0 0 5.406 3.754z" transform="translate(-339.472 -49.966)"/>
            <path id="Trazado_4470" data-name="Trazado 4470" d="M440.645 271.9c29.147-18.221 30.215-15.861 30.215-15.861l-1.878-24.16-37.96-3.327 3.78 30.843z" transform="translate(-307.993 -63.818)" style="fill:#a7b7cd;opacity:.98"/>
            <path id="Trazado_4456" data-name="Trazado 4456" class="cls-31" d="M422.6 34.862a2.223 2.223 0 0 1-2.2-.444c-1.257-.907 1.17-.19 1.234-1.917s-2.32-1.641-2.452-3.681.512-5.422 3.417-6.147c1.35-2.236.791.482 2.282-4.108s8.47-2.829 8.934-1.781 1.117 4.876 3.331 4.5 4.175-.746 4.749 0-.054 3.081.59 3.89 2.717 1.764 3.143 2.948-.011 4.951-1.413 5.74-.7 3.507-.731 4.813.568 3.173-.341 2.785.7-1.926-.657-3.506-4.845 6.322-5.685 2.948 2.641-12.224.346-15.319-7.554-2.132-7.554-2.132l-5.393 1.12-1.284 1.966z" transform="translate(-304.678 -15.56)"/>
            <path id="Trazado_4454" data-name="Trazado 4454" class="cls-29" d="M424.992 29.233s-1.167 7.475-1.138 7.914-.86 15.189 1.138 18.873 4.178 3.18 4.178 3.18h1.551s-1.174 7.609-2.495 8.737-1.3 4.727-1.3 4.727 5.748 6.94 10.69 1.338 5.816-8.939 5.816-8.939l-1.622-18.382s1.777 1.333 2.392-1.724-.933-6.522-3.171-4.477c-.876 1.242-.2 2.864-.864 3.078s-2.2 1.069-2.551-1.175.687-10.116.687-10.116 1.394-2.708 0-2.227-13.311-.807-13.311-.807z" transform="translate(-305.786 -18.658)"/>
            <path id="Trazado_4455" data-name="Trazado 4455" d="M432.511 66.756s4.645-3.456 5.92-4.275-.472 1.579-.472 1.579l-6.926 9.3z" transform="translate(-307.547 -26.153)" style="fill:#67493f;opacity:.98"/>
            <path id="Trazado_4457" data-name="Trazado 4457" class="cls-31" d="M440.788 38.376a19.978 19.978 0 0 1-.729 4.561c-.6 1.663-2.812 1.123-2.526-.392s.721-8.675.842-9.946 1.412-3.79-1.57-2.331-8.483 2.855-10.068 1.476-1.359-1.949-1.716-.959-.574 5.776-.921 6.022-1.554-6.54-1.554-6.54l3-5.986h3.994l8.328.92 2.917 6.071z" transform="translate(-306.039 -17.536)"/>
            <path id="Trazado_4463" data-name="Trazado 4463" class="cls-7" d="M433.785 84.39s-2.494 2.78-2.195 3.364.829 1.312 1.541 1.4a10.859 10.859 0 0 0 1.766 0s.84-.015.9-.153 1-2.282.14-3.071a14.582 14.582 0 0 0-2.152-1.54z" transform="translate(-307.647 -31.155)"/>
            <path id="Trazado_4464" data-name="Trazado 4464" class="cls-33" d="M446.3 75.974s-10.431 6.145-11.042 6.323 2.184 5.293 2.363 5.477.588.939 1.295.514 11.055-9.721 11.163-10.044-3.779-2.27-3.779-2.27z" transform="translate(-308.719 -29.248)"/>
            <path id="Trazado_4465" data-name="Trazado 4465" class="cls-33" d="M427.36 86.792c-1.333-1.722-3.214-3.832-2.7-4.455s3.344-3.262 3.757-3.122 3.406 3.527 3.97 3.593-2.428 4.483-2.746 4.724-.948.981-2.281-.74z" transform="translate(-305.859 -29.982)"/>
            <path id="Trazado_4469" data-name="Trazado 4469" d="M414.295 229.058s-.918 54.993 1.211 54.51 21.081-11.24 21.081-11.24l-8.243-41.033z" transform="translate(-303.295 -63.934)" style="fill:#8b9eb0;opacity:.98"/>
            <g id="Grupo_5977" data-name="Grupo 5977" transform="translate(112.85 144.644)">
                <path id="Trazado_4443" data-name="Trazado 4443" class="cls-12" d="m471.767 219.355-17.637-.331a1 1 0 0 1-.287-.046.805.805 0 0 1-.231-.117.545.545 0 0 1-.15-.169.389.389 0 0 1-.05-.2.4.4 0 0 1 .065-.2.6.6 0 0 1 .16-.162.87.87 0 0 1 .242-.107 1.047 1.047 0 0 1 .29-.036l17.638.319a1.032 1.032 0 0 1 .29.047.789.789 0 0 1 .236.118.539.539 0 0 1 .157.171.392.392 0 0 1 .049.207.4.4 0 0 1-.067.2.575.575 0 0 1-.169.165.86.86 0 0 1-.245.109 1.063 1.063 0 0 1-.3.036z" transform="translate(-425.987 -206.067)"/>
                <path id="Trazado_4441" data-name="Trazado 4441" class="cls-12" d="m472.294 205.2-17.636-.209a1 1 0 0 1-.286-.045.791.791 0 0 1-.231-.115.535.535 0 0 1-.15-.168.388.388 0 0 1-.05-.2.41.41 0 0 1 .066-.2.592.592 0 0 1 .16-.164.819.819 0 0 1 .242-.108 1.036 1.036 0 0 1 .288-.039l17.636.2a1.046 1.046 0 0 1 .293.045.808.808 0 0 1 .237.116.543.543 0 0 1 .157.169.391.391 0 0 1 .053.206.411.411 0 0 1-.066.2.6.6 0 0 1-.168.166.866.866 0 0 1-.245.111 1.038 1.038 0 0 1-.3.039z" transform="translate(-426.114 -202.888)"/>
                <path id="Trazado_4310" data-name="Trazado 4310" class="cls-12" d="m441.714 219.388-17.133-.327a.972.972 0 0 1-.278-.046.77.77 0 0 1-.224-.114.526.526 0 0 1-.15-.166.38.38 0 0 1-.05-.2.4.4 0 0 1 .067-.2.567.567 0 0 1 .16-.162.812.812 0 0 1 .233-.105.986.986 0 0 1 .281-.036l17.134.316a.984.984 0 0 1 .284.046.793.793 0 0 1 .231.116.552.552 0 0 1 .15.168.39.39 0 0 1 .05.2.4.4 0 0 1-.065.2.581.581 0 0 1-.164.162.852.852 0 0 1-.238.108 1.038 1.038 0 0 1-.288.036z" transform="translate(-418.905 -206.079)"/>
                <path id="Trazado_4309" data-name="Trazado 4309" class="cls-12" d="m441.981 212.411-17.135-.267a.974.974 0 0 1-.278-.046.767.767 0 0 1-.224-.114.514.514 0 0 1-.147-.167.389.389 0 0 1-.05-.2.4.4 0 0 1 .067-.2.569.569 0 0 1 .16-.161.833.833 0 0 1 .232-.107.982.982 0 0 1 .28-.036l17.134.254a.984.984 0 0 1 .284.045.776.776 0 0 1 .233.117.542.542 0 0 1 .15.168.389.389 0 0 1 .05.2.4.4 0 0 1-.065.2.573.573 0 0 1-.164.163.8.8 0 0 1-.238.108 1.008 1.008 0 0 1-.289.043z" transform="translate(-418.969 -204.512)"/>
                <path id="Trazado_4308" data-name="Trazado 4308" class="cls-12" d="m442.245 205.436-17.134-.208a.938.938 0 0 1-.277-.044.761.761 0 0 1-.224-.114.53.53 0 0 1-.147-.166.387.387 0 0 1-.05-.2.4.4 0 0 1 .067-.2.553.553 0 0 1 .16-.161.8.8 0 0 1 .231-.107.955.955 0 0 1 .281-.038l17.133.2a1.011 1.011 0 0 1 .284.043.8.8 0 0 1 .23.114.532.532 0 0 1 .15.167.383.383 0 0 1 .05.2.4.4 0 0 1-.065.2.564.564 0 0 1-.163.164.824.824 0 0 1-.238.109 1 1 0 0 1-.287.038z" transform="translate(-419.033 -202.945)"/>
                <path id="Trazado_4307" data-name="Trazado 4307" class="cls-12" d="m419.6 219.3-1.894-.039a.374.374 0 0 1-.15-.036.379.379 0 0 1-.119-.093.407.407 0 0 1-.078-.135.449.449 0 0 1-.024-.165l.08-2.057a.443.443 0 0 1 .039-.166.427.427 0 0 1 .088-.13.4.4 0 0 1 .126-.088.367.367 0 0 1 .15-.03l1.9.035a.348.348 0 0 1 .15.036.381.381 0 0 1 .12.093.418.418 0 0 1 .077.135.446.446 0 0 1 .024.164l-.081 2.061a.464.464 0 0 1-.037.163.43.43 0 0 1-.088.132.394.394 0 0 1-.128.088.365.365 0 0 1-.155.032z" transform="translate(-417.336 -205.701)"/>
                <path id="Trazado_4306" data-name="Trazado 4306" class="cls-11" d="m419.877 212.4-1.9-.032a.358.358 0 0 1-.15-.036.383.383 0 0 1-.12-.093.417.417 0 0 1-.078-.135.445.445 0 0 1-.024-.164l.079-2.057a.472.472 0 0 1 .039-.165.448.448 0 0 1 .088-.131.411.411 0 0 1 .126-.088.369.369 0 0 1 .152-.031l1.9.028a.35.35 0 0 1 .15.036.365.365 0 0 1 .119.092.415.415 0 0 1 .078.135.45.45 0 0 1 .023.162l-.081 2.064a.448.448 0 0 1-.037.163.431.431 0 0 1-.088.132.4.4 0 0 1-.127.088.368.368 0 0 1-.149.032z" transform="translate(-417.401 -204.139)"/>
                <path id="Trazado_4305" data-name="Trazado 4305" class="cls-9" d="m420.151 205.5-1.9-.026a.349.349 0 0 1-.15-.035.374.374 0 0 1-.119-.091.413.413 0 0 1-.078-.135.45.45 0 0 1-.024-.164l.08-2.056a.463.463 0 0 1 .038-.166.458.458 0 0 1 .088-.131.406.406 0 0 1 .127-.088.369.369 0 0 1 .15-.032l1.9.022a.348.348 0 0 1 .15.034.381.381 0 0 1 .119.094.414.414 0 0 1 .078.135.434.434 0 0 1 .024.165l-.08 2.059a.467.467 0 0 1-.037.164.445.445 0 0 1-.089.132.393.393 0 0 1-.127.089.366.366 0 0 1-.15.03z" transform="translate(-417.467 -202.578)"/>
            </g>
            <path id="Trazado_4471" data-name="Trazado 4471" class="cls-35" d="M324.2 80.228s-14.488 2.748-23.34 8.5" transform="translate(-258.965 -30.212)"/>
            <path id="Trazado_4472" data-name="Trazado 4472" class="cls-35" d="M325.554 105.541s13.585-4.368 17.173-4.246" transform="translate(-266.657 -34.985)"/>
            <path id="Trazado_4473" data-name="Trazado 4473" class="cls-35" d="M324.249 179.606s17.783 6.091 24.092 6.593" transform="translate(-266.359 -52.729)"/>
            <path id="Trazado_4474" data-name="Trazado 4474" class="cls-35" d="M333.888 208.425s20.581 6.82 35.914 7.2" transform="translate(-268.981 -59.259)"/>
            <path id="Trazado_4475" data-name="Trazado 4475" class="cls-35" d="M493.328 68.571s37.025 3.951 51.136 10.456" transform="translate(-324.695 -27.571)"/>
            <path id="Trazado_4476" data-name="Trazado 4476" class="cls-35" d="M529.916 110.907s16.392 2.239 23 6.047" transform="translate(-333.701 -37.163)"/>
            <path id="Trazado_4477" data-name="Trazado 4477" class="cls-35" d="M545.417 212.627s14.06-.938 26.925-6.886" transform="translate(-337.863 -58.65)"/>
            <path id="Trazado_4478" data-name="Trazado 4478" class="cls-35" d="M569.217 191.678s16.045-4.31 26.947-11.567" transform="translate(-345.225 -52.843)"/>
            <ellipse id="Elipse_889" data-name="Elipse 889" class="cls-36" cx="3.752" cy="3.817" rx="3.752" ry="3.817" transform="translate(45.543 43.963)"/>
            <ellipse id="Elipse_890" data-name="Elipse 890" class="cls-37" cx="2.251" cy="2.29" rx="2.251" ry="2.29" transform="translate(65.182 59.232)"/>
            <ellipse id="Elipse_893" data-name="Elipse 893" class="cls-37" cx="2.251" cy="2.29" rx="2.251" ry="2.29" transform="translate(38.966 93.333)"/>
            <ellipse id="Elipse_894" data-name="Elipse 894" class="cls-37" cx="2.251" cy="2.29" rx="2.251" ry="2.29" transform="translate(67.127 158.989)"/>
            <ellipse id="Elipse_895" data-name="Elipse 895" class="cls-36" cx="2.251" cy="2.29" rx="2.251" ry="2.29" transform="translate(219.358 160.007)"/>
            <ellipse id="Elipse_900" data-name="Elipse 900" class="cls-38" cx="3.002" cy="3.054" rx="3.002" ry="3.054" transform="translate(213.396 61.777)"/>
            <ellipse id="Elipse_904" data-name="Elipse 904" class="cls-38" cx="2.251" cy="2.29" rx="2.251" ry="2.29" transform="translate(176.956 34.802)"/>
            <ellipse id="Elipse_905" data-name="Elipse 905" class="cls-36" cx="1.501" cy="1.527" rx="1.501" ry="1.527" transform="translate(192.059 53.125)"/>
            <ellipse id="Elipse_891" data-name="Elipse 891" class="cls-38" cx="4.252" cy="4.326" rx="4.252" ry="4.326" transform="translate(35.538 66.358)"/>
            <ellipse id="Elipse_892" data-name="Elipse 892" class="cls-36" cx="4.252" cy="4.326" rx="4.252" ry="4.326" transform="translate(49.044 135.577)"/>
            <ellipse id="Elipse_898" data-name="Elipse 898" class="cls-37" cx="4.252" cy="4.326" rx="4.252" ry="4.326" transform="translate(244.043 141.176)"/>
            <ellipse id="Elipse_902" data-name="Elipse 902" class="cls-36" cx="4.252" cy="4.326" rx="4.252" ry="4.326" transform="translate(206.051 34.293)"/>
            <ellipse id="Elipse_896" data-name="Elipse 896" class="cls-38" cx="3.752" cy="3.817" rx="3.752" ry="3.817" transform="translate(91.414 128.451)"/>
            <ellipse id="Elipse_897" data-name="Elipse 897" class="cls-38" cx="3.752" cy="3.817" rx="3.752" ry="3.817" transform="translate(208.111 140.158)"/>
            <ellipse id="Elipse_899" data-name="Elipse 899" class="cls-36" cx="3.752" cy="3.817" rx="3.752" ry="3.817" transform="translate(242.042 115.727)"/>
            <ellipse id="Elipse_901" data-name="Elipse 901" class="cls-37" cx="3.752" cy="3.817" rx="3.752" ry="3.817" transform="translate(176.903 62.286)"/>
            <g id="Grupo_5990" data-name="Grupo 5990" transform="translate(102.801 113.592)" style="opacity:.958">
                <path id="Trazado_4444" data-name="Trazado 4444" d="M408.627 162.429a199.655 199.655 0 0 0 38.423 4.071c20.136 0 42.117-4.071 42.117-4.071a4.037 4.037 0 0 1 4 4.071v44.789a4.038 4.038 0 0 1-4 4.072s-21.981 4.293-42.117 4.293a189.855 189.855 0 0 1-38.423-4.293 4.037 4.037 0 0 1-4-4.072V166.5a4.037 4.037 0 0 1 4-4.071z" transform="translate(-404.625 -162.429)" style="fill:#d3cfcf"/>
                <path id="Trazado_4445" data-name="Trazado 4445" class="cls-1" d="M411.712 167.95a202.708 202.708 0 0 0 36.155 3.537c18.944 0 39.627-3.537 39.627-3.537a3.657 3.657 0 0 1 3.765 3.537v38.9a3.657 3.657 0 0 1-3.765 3.537s-20.683 3.729-39.628 3.729a192.8 192.8 0 0 1-36.154-3.729 3.657 3.657 0 0 1-3.765-3.537v-38.9a3.657 3.657 0 0 1 3.765-3.537z" transform="translate(-405.422 -163.68)"/>
                <g id="Grupo_5978" data-name="Grupo 5978" transform="translate(62.502 21.714)">
                    <path id="Trazado_4311" data-name="Trazado 4311" class="cls-9" d="m504.747 200.651.016-.133c0-.045.01-.09.014-.134l.013-.135.011-.135a10.7 10.7 0 0 0-.306-3.512 9.433 9.433 0 0 0-1.346-2.977 7.686 7.686 0 0 0-2.186-2.137 6.386 6.386 0 0 0-2.829-.983l-.714 9.569z" transform="translate(-489.381 -190.504)"/>
                    <path id="Trazado_4312" data-name="Trazado 4312" class="cls-11" d="m494.371 201.062.714-9.573a6.32 6.32 0 0 0-2.967.441 7.492 7.492 0 0 0-2.544 1.731 9.253 9.253 0 0 0-1.841 2.758 10.821 10.821 0 0 0-.517 7.1 9.35 9.35 0 0 0 1.416 3 7.569 7.569 0 0 0 2.254 2.1 6.3 6.3 0 0 0 5.677.422 7.47 7.47 0 0 0 2.415-1.626 9.124 9.124 0 0 0 1.789-2.542 10.535 10.535 0 0 0 .942-3.233z" transform="translate(-486.845 -190.721)"/>
                </g>
                <path id="Trazado_4442-2" data-name="Trazado 4442" class="cls-12" d="m472.454 202.184-18.575-.478a1.152 1.152 0 0 1-.307-.051.909.909 0 0 1-.25-.119.583.583 0 0 1-.164-.171.368.368 0 0 1 .008-.408.584.584 0 0 1 .173-.162.9.9 0 0 1 .25-.107 1.117 1.117 0 0 1 .308-.032l18.574.481a1.133 1.133 0 0 1 .3.05.888.888 0 0 1 .25.119.568.568 0 0 1 .166.17.385.385 0 0 1 .059.2.376.376 0 0 1-.065.2.566.566 0 0 1-.171.162.9.9 0 0 1-.25.106 1.133 1.133 0 0 1-.306.04z" transform="translate(-416.25 -171.09)"/>
                <g id="Grupo_5977-2" data-name="Grupo 5977" transform="translate(9.632 23.313)">
                    <path id="Trazado_4443-2" data-name="Trazado 4443" class="cls-12" d="m471.727 209.35-17.637-.332a1 1 0 0 1-.287-.046.791.791 0 0 1-.231-.116.557.557 0 0 1-.15-.169.39.39 0 0 1-.05-.2.4.4 0 0 1 .065-.2.576.576 0 0 1 .16-.162.82.82 0 0 1 .242-.107 1.014 1.014 0 0 1 .29-.036l17.638.319a1.058 1.058 0 0 1 .29.047.826.826 0 0 1 .236.118.554.554 0 0 1 .156.171.386.386 0 0 1 .05.207.4.4 0 0 1-.067.2.575.575 0 0 1-.169.165.838.838 0 0 1-.245.109 1.035 1.035 0 0 1-.3.036z" transform="translate(-425.947 -196.062)"/>
                    <path id="Trazado_4441-2" data-name="Trazado 4441" class="cls-12" d="m472.254 195.195-17.636-.209a1 1 0 0 1-.286-.045.788.788 0 0 1-.231-.114.545.545 0 0 1-.15-.169.387.387 0 0 1-.05-.2.4.4 0 0 1 .066-.2.583.583 0 0 1 .16-.164.843.843 0 0 1 .241-.108 1.011 1.011 0 0 1 .288-.038l17.637.2a1.024 1.024 0 0 1 .293.045.8.8 0 0 1 .237.115.552.552 0 0 1 .157.169.394.394 0 0 1 .053.207.411.411 0 0 1-.066.2.6.6 0 0 1-.168.166.878.878 0 0 1-.245.111 1.1 1.1 0 0 1-.3.039z" transform="translate(-426.074 -192.882)"/>
                    <path id="Trazado_4310-2" data-name="Trazado 4310" class="cls-12" d="m441.674 209.383-17.133-.326a.941.941 0 0 1-.278-.046.726.726 0 0 1-.224-.114.522.522 0 0 1-.151-.166.381.381 0 0 1-.049-.2.39.39 0 0 1 .067-.2.56.56 0 0 1 .161-.162.81.81 0 0 1 .233-.105.958.958 0 0 1 .281-.035l17.134.316a.987.987 0 0 1 .284.046.791.791 0 0 1 .231.115.545.545 0 0 1 .15.169.388.388 0 0 1 .05.2.4.4 0 0 1-.065.2.572.572 0 0 1-.164.162.8.8 0 0 1-.239.108 1 1 0 0 1-.287.036z" transform="translate(-418.865 -196.073)"/>
                    <path id="Trazado_4309-2" data-name="Trazado 4309" class="cls-12" d="m441.941 202.406-17.134-.268a.974.974 0 0 1-.278-.045.756.756 0 0 1-.224-.115.518.518 0 0 1-.147-.166.389.389 0 0 1-.05-.2.4.4 0 0 1 .067-.195.559.559 0 0 1 .16-.161.791.791 0 0 1 .232-.107.952.952 0 0 1 .28-.037l17.135.254a.985.985 0 0 1 .284.046.8.8 0 0 1 .233.116.545.545 0 0 1 .15.169.386.386 0 0 1 .05.2.4.4 0 0 1-.065.2.582.582 0 0 1-.164.163.827.827 0 0 1-.238.108 1.01 1.01 0 0 1-.291.038z" transform="translate(-418.929 -194.506)"/>
                    <path id="Trazado_4308-2" data-name="Trazado 4308" class="cls-12" d="m442.2 195.43-17.133-.208a.947.947 0 0 1-.278-.044.748.748 0 0 1-.224-.114.512.512 0 0 1-.147-.166.387.387 0 0 1-.05-.2.4.4 0 0 1 .067-.2.581.581 0 0 1 .16-.161.812.812 0 0 1 .232-.107.981.981 0 0 1 .28-.038l17.133.2a.985.985 0 0 1 .284.044.786.786 0 0 1 .23.114.531.531 0 0 1 .15.167.382.382 0 0 1 .05.2.4.4 0 0 1-.065.2.569.569 0 0 1-.163.163.824.824 0 0 1-.238.109 1 1 0 0 1-.287.039z" transform="translate(-418.993 -192.939)"/>
                    <path id="Trazado_4307-2" data-name="Trazado 4307" class="cls-12" d="m419.562 209.3-1.9-.039a.351.351 0 0 1-.15-.036.368.368 0 0 1-.119-.093.4.4 0 0 1-.078-.135.442.442 0 0 1-.024-.164l.08-2.058a.463.463 0 0 1 .038-.165.443.443 0 0 1 .089-.129.388.388 0 0 1 .126-.088.356.356 0 0 1 .15-.031l1.9.036a.359.359 0 0 1 .15.036.384.384 0 0 1 .12.093.426.426 0 0 1 .077.135.447.447 0 0 1 .024.165l-.081 2.06a.464.464 0 0 1-.037.164.451.451 0 0 1-.089.132.382.382 0 0 1-.127.087.356.356 0 0 1-.149.03z" transform="translate(-417.296 -195.695)"/>
                    <path id="Trazado_4306-2" data-name="Trazado 4306" class="cls-11" d="m419.837 202.394-1.9-.032a.363.363 0 0 1-.151-.036.387.387 0 0 1-.119-.092.412.412 0 0 1-.078-.135.442.442 0 0 1-.024-.163l.079-2.058a.462.462 0 0 1 .039-.165.433.433 0 0 1 .088-.13.4.4 0 0 1 .126-.088.354.354 0 0 1 .152-.031l1.9.028a.361.361 0 0 1 .151.036.376.376 0 0 1 .119.092.421.421 0 0 1 .078.135.446.446 0 0 1 .023.162l-.081 2.063a.446.446 0 0 1-.037.163.432.432 0 0 1-.088.132.39.39 0 0 1-.127.088.358.358 0 0 1-.15.031z" transform="translate(-417.361 -194.134)"/>
                    <path id="Trazado_4305-2" data-name="Trazado 4305" class="cls-9" d="m420.111 195.5-1.9-.026a.349.349 0 0 1-.15-.036.356.356 0 0 1-.119-.091.4.4 0 0 1-.078-.135.45.45 0 0 1-.024-.165l.08-2.056a.448.448 0 0 1 .126-.3.4.4 0 0 1 .127-.089.369.369 0 0 1 .15-.032l1.9.022a.348.348 0 0 1 .15.035.368.368 0 0 1 .119.093.414.414 0 0 1 .078.135.444.444 0 0 1 .024.164l-.081 2.059a.451.451 0 0 1-.036.164.446.446 0 0 1-.089.133.406.406 0 0 1-.127.088.367.367 0 0 1-.15.037z" transform="translate(-417.427 -192.572)"/>
                </g>
            </g>
        </g>
    </g>
</svg>
