<svg width="20" height="20" xmlns="http://www.w3.org/2000/svg">
    <path d="M13.627 18.77h2.285c.285 0 .515-.182.515-.407v-7.658a.626.626 0 0 1 .638-.614h1.147c.27 0 .43-.143.486-.28.04-.096.06-.235-.088-.383l-8.213-8.071c-.199-.197-.6-.197-.8 0l-8.21 8.076c-.147.145-.127.288-.085.384.057.134.217.276.487.276h1.033a.624.624 0 0 1 .635.615v7.658c0 .225.23.407.512.407h2.456v-3.822a.626.626 0 0 1 .637-.614h5.93a.624.624 0 0 1 .635.614v3.82zM15.912 20H12.99a.624.624 0 0 1-.635-.615v-3.819H7.697v3.82a.626.626 0 0 1-.635.614H3.97c-.985 0-1.787-.734-1.787-1.634v-7.043h-.393c-.734 0-1.389-.404-1.66-1.03C-.128 9.7.006 9.04.484 8.577l8.21-8.08c.671-.663 1.94-.663 2.615 0l8.21 8.077c.475.467.612 1.124.353 1.716-.27.626-.925 1.03-1.66 1.03H17.7v7.043c0 .903-.802 1.637-1.787 1.637z" fill="#0B2739" fill-rule="evenodd"/>
</svg>
