<svg width="20" height="20" xmlns="http://www.w3.org/2000/svg">
    <defs>
        <filter id="a">
            <feColorMatrix in="SourceGraphic" values="0 0 0 0 0.003922 0 0 0 0 0.615686 0 0 0 0 0.956863 0 0 0 1.000000 0"/>
        </filter>
    </defs>
    <g filter="url(#a)" transform="translate(-176 -1)" fill="none" fill-rule="evenodd">
        <path d="M187.57 11.068c-1.36 1.574-1.41 1.636-1.41 3.104a.407.407 0 0 1-.408.407h-.449a.4.4 0 0 1-.398-.33 3.18 3.18 0 0 1-.057-.643c0-1.101.387-1.753 1.254-2.797l.165-.199c1.429-1.69 1.699-2.16 1.699-2.959 0-.566-.162-.935-.544-1.24-.219-.173-.603-.375-1.652-.375-.57 0-1.076.065-1.693.221a.406.406 0 0 1-.498-.321l-.065-.35a.407.407 0 0 1 .224-.444c.384-.182 1.323-.37 2.23-.37.957 0 1.72.214 2.271.63.708.52 1.041 1.242 1.041 2.267-.003 1.251-.523 1.997-1.71 3.4m-1.985 6.312c-.544 0-.888-.338-.888-.839v-.065c0-.504.353-.857.856-.857.538 0 .888.353.888.857 0 .569-.344.904-.856.904m.819-16.37c-.279-.005-.612-.014-.908-.008-1.587.014-9.496.557-9.496 9.966 0 9.41 7.963 10.003 9.559 10.025a36.678 36.678 0 0 0 .876-.003c1.596-.028 9.556-.645 9.556-9.965.003-9.315-7.985-9.978-9.587-10.015" fill="#019DF4"/>
    </g>
</svg>
