<svg width="13" height="20" xmlns="http://www.w3.org/2000/svg">
    <path d="M6.49 1.224c-3.46 0-5.372 2.111-5.382 5.947-.01 3.41 3.714 9.226 5.367 11.315 1.505-1.912 5.41-7.706 5.42-11.278.01-3.847-1.899-5.97-5.378-5.984h-.026zM6.479 20a.53.53 0 0 1-.392-.18C4.846 18.45-.013 11.535 0 7.169.013 2.678 2.44 0 6.49 0h.03c4.069.014 6.493 2.71 6.48 7.211-.01 4.684-5.368 11.767-6.13 12.61a.534.534 0 0 1-.392.179zM6.5 5.302c-.89 0-1.327.48-1.327 1.465 0 .988.434 1.469 1.327 1.469.894 0 1.327-.481 1.327-1.466 0-.987-.436-1.466-1.327-1.468zm0 4.16C5 9.462 4.067 8.43 4.067 6.77c0-1.659.932-2.692 2.434-2.692 1.502 0 2.435 1.033 2.435 2.692 0 1.66-.933 2.692-2.435 2.692z" fill="#0B2739" fill-rule="evenodd"/>
</svg>
