<svg width="11" height="17" xmlns="http://www.w3.org/2000/svg">
    <defs>
        <filter id="a">
            <feColorMatrix in="SourceGraphic" values="0 0 0 0 1.000000 0 0 0 0 1.000000 0 0 0 0 1.000000 0 0 0 1.000000 0"/>
        </filter>
    </defs>
    <g filter="url(#a)" transform="translate(-201 -235)" fill="none" fill-rule="evenodd">
        <path d="M206.489 236.04c-2.927 0-4.544 1.794-4.552 5.054-.01 2.897 3.14 7.84 4.539 9.615 1.272-1.625 4.574-6.549 4.583-9.584.009-3.27-1.606-5.073-4.548-5.085h-.022zm-.011 15.955a.447.447 0 0 1-.331-.152c-1.05-1.166-5.158-7.042-5.147-10.752.011-3.815 2.063-6.091 5.489-6.091h.024c3.442.012 5.491 2.302 5.48 6.128-.008 3.98-4.539 9.999-5.184 10.715a.451.451 0 0 1-.331.152zm.02-12.49c-.753 0-1.122.409-1.122 1.245 0 .84.366 1.248 1.122 1.248.755 0 1.122-.408 1.122-1.245 0-.84-.369-1.245-1.122-1.248zm0 3.536c-1.27 0-2.059-.878-2.059-2.288 0-1.41.789-2.288 2.059-2.288s2.058.878 2.058 2.288c0 1.41-.788 2.288-2.058 2.288z" fill="#019DF4"/>
    </g>
</svg>
