<svg width="16" height="20" xmlns="http://www.w3.org/2000/svg">
    <defs>
        <filter id="a">
            <feColorMatrix in="SourceGraphic" values="0 0 0 0 1.000000 0 0 0 0 1.000000 0 0 0 0 1.000000 0 0 0 1.000000 0"/>
        </filter>
    </defs>
    <g filter="url(#a)" transform="translate(-119 -233)" fill="none" fill-rule="evenodd">
        <g fill="#019DF4" fill-rule="nonzero">
            <path d="M131.125 252.977h-8.279c-1.195 0-2.136-.286-2.795-.847-.69-.589-1.042-1.447-1.042-2.555l.004-5.708c-.004-.312-.004-.436-.004-.436v-.006c0-1.108.352-1.969 1.042-2.555.659-.561 1.6-.847 2.798-.847h8.28c1.195 0 2.136.283 2.798.844.69.586 1.051 1.445 1.064 2.55v6.167c-.016 1.107-.374 1.963-1.064 2.55-.665.56-1.606.843-2.802.843zm-10.817-9.558c0 .023.003.153.003.44v.005l-.003 5.711c0 .773.214 1.346.634 1.703.41.348 1.05.527 1.907.527h8.28c.853 0 1.496-.179 1.91-.53.424-.357.643-.932.656-1.706v-6.141c-.013-.774-.232-1.349-.656-1.706-.414-.35-1.057-.527-1.91-.527h-8.283c-.853 0-1.496.179-1.907.527-.417.354-.63.927-.63 1.697z"/>
            <path d="M122.15 241.19c-.358 0-.65-.264-.65-.587v-3.01c0-2.522 2.42-4.57 5.393-4.57h.214c2.974 0 5.393 2.05 5.393 4.57v2.988c0 .323-.292.586-.65.586-.357 0-.65-.263-.65-.586v-2.989c0-1.872-1.838-3.4-4.093-3.4h-.214c-2.258 0-4.094 1.525-4.094 3.4v3.011c0 .326-.292.587-.65.587zm4.856 7.969c-.583 0-1.05-.15-1.393-.448-.354-.309-.536-.745-.536-1.295 0-.55.179-.985.533-1.294.339-.298.81-.448 1.393-.448.584 0 1.054.15 1.393.448.355.309.537.745.537 1.294 0 .55-.18.986-.537 1.295-.336.297-.806.448-1.39.448zm0-2.31c-.483 0-.627.134-.627.57 0 .437.147.567.627.567.483 0 .63-.133.63-.567 0-.436-.147-.57-.63-.57z"/>
        </g>
    </g>
</svg>
