<svg width="20" height="20" xmlns="http://www.w3.org/2000/svg">
    <defs>
        <filter id="a">
            <feColorMatrix in="SourceGraphic" values="0 0 0 0 0.043137 0 0 0 0 0.152941 0 0 0 0 0.223529 0 0 0 1.000000 0"/>
        </filter>
    </defs>
    <g filter="url(#a)" transform="translate(-209 -774)" fill="none" fill-rule="evenodd">
        <path d="M221.68 792.478c1.69-1.909 6.063-7.704 6.071-11.272.009-1.909-.515-3.394-1.55-4.42-1.033-1.03-2.541-1.551-4.478-1.563-1.915 0-3.446.515-4.49 1.537-1.044 1.018-1.576 2.503-1.576 4.415-.008.279.034.597.091.922 1.6.327 4.017 1.436 4.017 5.18 0 .89-.142 1.633-.372 2.245a35.437 35.437 0 0 0 2.287 2.956zm-7.073-1.135c1.457-.023 3.918-.586 3.918-4.063 0-3.476-2.475-4.057-3.952-4.097h-.463c-1.451.018-3.87.558-3.87 4.066 0 3.525 2.453 4.08 3.91 4.105h.156c.102-.003.21-.003.301-.011zm12.481-15.426c1.252 1.25 1.915 3.076 1.906 5.298-.008 4.683-6.022 11.76-6.873 12.6a.62.62 0 0 1-.438.18.6.6 0 0 1-.438-.18c-.43-.415-1.392-1.533-2.51-3.084-1.291 1.642-3.405 1.83-4.1 1.835-.099.009-.215.009-.323.009h-.174c-1.078-.017-5.138-.401-5.138-5.329 0-4.913 4.017-5.28 5.092-5.289h.373a5.251 5.251 0 0 1-.051-.79c0-2.211.671-4.04 1.937-5.28 1.27-1.241 3.138-1.878 5.377-1.887 2.248.009 4.103.669 5.36 1.917zm-5.382 3.386c-1.002 0-1.488.48-1.488 1.465 0 .984.486 1.465 1.488 1.465 1.001 0 1.487-.48 1.487-1.465 0-.984-.489-1.465-1.487-1.465zm0 4.16c-1.685 0-2.732-1.033-2.732-2.692 0-1.659 1.047-2.691 2.732-2.691 1.684 0 2.73 1.032 2.73 2.691-.002 1.659-1.046 2.691-2.73 2.691zm-4.64 3.174a.614.614 0 0 1 .62.612.614.614 0 0 1-.62.612h-2.063v2.042a.614.614 0 0 1-.62.612.614.614 0 0 1-.62-.612v-2.04H211.7a.614.614 0 0 1-.62-.611.616.616 0 0 1 .62-.612h2.06v-2.008a.614.614 0 0 1 .62-.612.614.614 0 0 1 .62.612v2.008h2.065v-.003z" fill="#019DF4"/>
    </g>
</svg>
