<svg width="20" height="21" xmlns="http://www.w3.org/2000/svg">
    <path d="m15.45 16.979 2.985 1.314-1.77-6.188-1.891.945.677 3.929zM3.537 12.134 1.6 18.284l2.964-1.288.464-4.02-1.49-.842zm5.87 4.33c-.564-.603-1.61-1.91-2.646-3.491l-.524.154-.444 3.889 3.6 1.476.013-2.028zm.6-15.24c-3.11 0-4.825 1.715-4.837 4.833-.008 2.757 3.278 7.442 4.822 9.235 1.423-1.662 4.862-6.322 4.871-9.207.009-3.126-1.707-4.853-4.83-4.862h-.026zm.623 15.191-.014 2.06 3.604-1.442-.66-3.852-.37-.117c-1.041 1.55-2.077 2.814-2.56 3.351zm9.343 2.8a.615.615 0 0 1-.185.629.614.614 0 0 1-.652.1l-4.233-1.867-4.677 1.875a.589.589 0 0 1-.37.025l-.114-.025a.851.851 0 0 1-.09-.029L5.151 18.08.856 19.946a.62.62 0 0 1-.654-.105.62.62 0 0 1-.174-.64l2.567-8.151a.61.61 0 0 1 .885-.347l2.278 1.288.327-.093c-1.16-1.95-2.145-4.126-2.14-5.838C3.958 2.267 6.223.006 10.01.006h.028c3.8.011 6.063 2.287 6.051 6.09-.005 1.785-1.03 3.975-2.213 5.904l.17.054 2.737-1.366a.617.617 0 0 1 .521-.01.603.603 0 0 1 .341.392l2.328 8.145zM8.902 5.724c0 .76.353 1.112 1.112 1.112.76 0 1.115-.352 1.115-1.112 0-.76-.355-1.115-1.115-1.115-.757 0-1.112.353-1.112 1.115zm3.454 0c0 1.442-.897 2.339-2.339 2.339S7.68 7.166 7.68 5.724s.896-2.339 2.338-2.339c1.442 0 2.339.897 2.339 2.339z" fill="#0B2739" fill-rule="evenodd"/>
</svg>
