<svg width="13" height="17" xmlns="http://www.w3.org/2000/svg">
    <path d="M11.523 4.886 7.937 1.427v1.539c0 .563.187 1.052.545 1.393.355.34.865.53 1.465.53h1.576v-.003zm1.248-.242c.145.138.229.334.229.535v10.63c0 .65-.557 1.191-1.22 1.191H1.212C.565 17 0 16.441 0 15.81V1.19C0 .57.58 0 1.213 0h6.435c.202 0 .39.075.53.215l4.593 4.43zM9.895 9.76c-.133.126-1.598 1.427-3.922 3.481l-1.75.598.572-1.699c.342-.3 3.741-3.294 3.963-3.514.21-.208.432-.252.594-.237a.82.82 0 0 1 .545.244c.153.145.245.37.245.578 0 .208-.087.39-.247.55zm.74-1.872c-.641-.641-1.793-.815-2.617 0a3.05 3.05 0 0 0-.16.152H2.604a.522.522 0 1 0 0 1.045h4.082c-.32.279-.67.593-1.046.92H2.604a.522.522 0 1 0 0 1.045h1.85l-.377.333a.988.988 0 0 0-.267.397l-.061.181H2.604a.522.522 0 1 0 0 1.045h.797l-.252.76c-.02.048-.027.104-.034.152h-.51a.526.526 0 0 0-.523.523c0 .285.236.522.522.522h1.29c.015 0 .027 0 .042-.007.02.007.05.007.077.007.091 0 .187-.014.286-.04l1.99-.661a.83.83 0 0 0 .32-.182l.062-.055a578.406 578.406 0 0 0 3.956-3.515c.363-.353.56-.8.56-1.294 0-.486-.202-.98-.552-1.328z" fill="#FFF" fill-rule="evenodd"/>
</svg>
