<svg width="14" height="16" xmlns="http://www.w3.org/2000/svg">
    <path d="M7 8.011c-1.245 0-2.215-.332-2.887-.99-.697-.682-1.05-1.695-1.05-3.01 0-1.316.353-2.331 1.05-3.016C4.785.335 5.755 0 7 0s2.218.335 2.892.995c.701.685 1.055 1.7 1.055 3.015 0 1.316-.356 2.329-1.057 3.011-.672.658-1.645.99-2.89.99zm0-7.1c-1.004 0-1.765.247-2.265.74-.515.507-.777 1.3-.777 2.362 0 1.06.262 1.85.777 2.355.498.487 1.26.735 2.265.735 1.006 0 1.77-.248 2.271-.735.518-.505.782-1.297.782-2.353C10.051 1.925 9.052.91 7 .91zM13.552 16H.448A.453.453 0 0 1 0 15.545v-1.332c0-1.274.39-2.36 1.129-3.143.806-.853 2.003-1.306 3.463-1.306h4.805c1.46 0 2.66.45 3.467 1.304.744.785 1.136 1.87 1.136 3.145v1.332c0 .25-.202.455-.448.455zM.896 15.09h12.208v-.877c0-1.033-.307-1.902-.885-2.515-.645-.68-1.595-1.024-2.822-1.024H4.592c-1.228 0-2.175.344-2.816 1.024-.575.61-.88 1.48-.88 2.515v.877z" fill="#FFF" fill-rule="nonzero"/>
</svg>
