<svg width="15" height="20" xmlns="http://www.w3.org/2000/svg">
    <path d="M5.224 18.771v-4.46c0-.34.27-.613.6-.613h3.375c.332 0 .6.274.6.612v4.458h3.798c.099 0 .198-.114.198-.176V1.4c-.005-.06-.125-.177-.198-.177H1.423c-.076 0-.196.114-.199.177v17.192c0 .062.103.176.2.176l3.8.003zm8.375 1.223H1.426c-.747 0-1.4-.654-1.4-1.4V1.404c0-.734.667-1.4 1.4-1.4H13.6c.733 0 1.401.668 1.401 1.4v17.192c-.003.745-.656 1.4-1.4 1.4zM6.426 18.74H8.6v-3.818H6.426v3.818zM4.286 5.19h1.356V3.81H4.287v1.38zm1.958 1.223H3.688a.604.604 0 0 1-.6-.612V3.198c0-.339.27-.612.6-.612h2.556c.333 0 .6.273.6.612V5.8c0 .338-.27.612-.6.612zm3.094-1.224h1.355V3.81H9.338v1.38zm1.957 1.224H8.74a.604.604 0 0 1-.6-.612V3.198c0-.339.27-.612.6-.612h2.556c.333 0 .6.273.6.612V5.8c0 .338-.27.612-.6.612zm-7.008 3.886h1.355v-1.38H4.287v1.38zm1.957 1.223H3.688a.604.604 0 0 1-.6-.612V8.307c0-.338.27-.611.6-.611h2.556c.333 0 .6.273.6.611v2.603c0 .339-.27.612-.6.612zm3.094-1.223h1.355v-1.38H9.338v1.38zm1.957 1.223H8.74a.604.604 0 0 1-.6-.612V8.307c0-.338.27-.611.6-.611h2.556c.333 0 .6.273.6.611v2.603c0 .339-.27.612-.6.612z" fill="#0B2739" fill-rule="evenodd"/>
</svg>
