<svg width="23" height="25" xmlns="http://www.w3.org/2000/svg">
    <path d="M11.314 12.517c-1.919 0-3.413-.498-4.448-1.485-1.073-1.024-1.618-2.543-1.618-4.517 0-1.973.545-3.496 1.618-4.523C7.901 1.002 9.396.5 11.314.5c1.918 0 3.416.502 4.454 1.492 1.08 1.027 1.626 2.55 1.626 4.523 0 1.974-.55 3.493-1.63 4.517-1.034.987-2.532 1.485-4.45 1.485zm0-10.651c-1.546 0-2.72.372-3.489 1.11-.793.76-1.197 1.952-1.197 3.543 0 1.59.404 2.775 1.197 3.533.766.73 1.94 1.103 3.489 1.103 1.55 0 2.726-.372 3.499-1.103.797-.758 1.204-1.946 1.204-3.53-.004-3.134-1.543-4.656-4.703-4.656zM21.406 24.5H1.221a.688.688 0 0 1-.69-.683V21.82c0-1.912.6-3.54 1.74-4.715 1.241-1.28 3.084-1.96 5.334-1.96h7.4c2.25 0 4.1.677 5.342 1.957 1.146 1.178 1.75 2.806 1.75 4.718v1.997c0 .376-.311.683-.69.683zM1.911 23.134h18.805V21.82c0-1.55-.472-2.854-1.363-3.772-.993-1.021-2.456-1.537-4.347-1.537H7.605c-1.891 0-3.35.516-4.338 1.537-.886.915-1.356 2.219-1.356 3.772v1.314z" fill="#FFF" fill-rule="nonzero"/>
</svg>
