<svg width="19" height="20" xmlns="http://www.w3.org/2000/svg">
    <path d="m17.786 17.863-3.106-.538V1.392l3.106.538v15.933zM1.216 1.933l3.293-.547v15.936l-3.293.55V1.931zm8.89.674 3.36-1.101v15.893l-3.36 1.101V2.607zM5.72 1.517l3.176 1.084v15.885L5.72 17.4V1.517zm12.772-.76L14.172.01c-.013-.003-.03.002-.043.002C14.11.01 14.094 0 14.075 0c-.04 0-.076.014-.114.023-.021.005-.046-.003-.067.005l-4.39 1.438L5.301.03c-.025-.008-.046 0-.07-.005C5.19.017 5.154 0 5.11 0c-.018 0-.035.009-.05.011-.014.003-.028-.005-.044-.002L.51.757A.63.63 0 0 0 0 1.39v17.225c0 .188.078.364.214.484a.585.585 0 0 0 .489.145l4.363-.726 4.249 1.452a.597.597 0 0 0 .367.003l4.436-1.455 4.176.726a.601.601 0 0 0 .492-.142.656.656 0 0 0 .214-.487V1.386a.63.63 0 0 0-.508-.629z" fill="#0B2739" fill-rule="evenodd"/>
</svg>
