<svg width="25" height="32" xmlns="http://www.w3.org/2000/svg">
    <defs>
        <filter id="a">
            <feColorMatrix in="SourceGraphic" values="0 0 0 0 0.043137 0 0 0 0 0.152941 0 0 0 0 0.223529 0 0 0 1.000000 0"/>
        </filter>
    </defs>
    <g filter="url(#a)" transform="translate(-34 -484)" fill="none" fill-rule="evenodd">
        <g fill="#019DF4" fill-rule="nonzero">
            <path d="M52.946 515.964H40.01c-1.868 0-3.338-.458-4.368-1.356-1.078-.942-1.627-2.316-1.627-4.088l.005-9.133c-.005-.499-.005-.698-.005-.698v-.01c0-1.771.549-3.15 1.627-4.087 1.03-.898 2.5-1.356 4.373-1.356H52.95c1.868 0 3.338.454 4.373 1.351 1.078.938 1.642 2.312 1.661 4.08v9.867c-.024 1.772-.583 3.14-1.661 4.079-1.04.897-2.51 1.35-4.378 1.35zM36.044 500.67c0 .036.005.245.005.702v.01l-.005 9.137c0 1.238.333 2.153.99 2.724.642.558 1.642.843 2.98.843h12.937c1.333 0 2.338-.285 2.985-.847.662-.571 1.005-1.492 1.025-2.729v-9.827c-.02-1.237-.363-2.157-1.025-2.728-.647-.562-1.652-.843-2.985-.843H40.01c-1.334 0-2.338.285-2.98.843-.653.566-.986 1.482-.986 2.715z"/>
            <path d="M38.922 497.104c-.56 0-1.015-.422-1.015-.939v-4.818c0-4.034 3.78-7.31 8.426-7.31h.334c4.647 0 8.426 3.28 8.426 7.31v4.782c0 .517-.456.938-1.015.938-.558 0-1.014-.421-1.014-.938v-4.782c0-2.996-2.873-5.439-6.397-5.439h-.334c-3.53 0-6.397 2.439-6.397 5.44v4.817c0 .522-.456.939-1.014.939zm7.588 12.75c-.912 0-1.642-.24-2.177-.716-.554-.494-.838-1.192-.838-2.072 0-.879.28-1.577.833-2.071.53-.476 1.265-.716 2.177-.716.912 0 1.647.24 2.176.716.554.494.839 1.192.839 2.071 0 .88-.28 1.578-.839 2.072-.524.476-1.26.716-2.171.716zm0-3.694c-.755 0-.98.213-.98.91 0 .699.23.907.98.907.755 0 .985-.213.985-.906 0-.698-.23-.911-.985-.911z"/>
        </g>
    </g>
</svg>
