<svg width="15" height="21" xmlns="http://www.w3.org/2000/svg">
    <defs>
        <filter id="a">
            <feColorMatrix in="SourceGraphic" values="0 0 0 0 0.043137 0 0 0 0 0.152941 0 0 0 0 0.223529 0 0 0 1.000000 0"/>
        </filter>
    </defs>
    <g filter="url(#a)" transform="translate(-58 -377)" fill="none" fill-rule="evenodd">
        <g fill="#019DF4" fill-rule="nonzero">
            <path d="M69.247 398h-7.468c-1.26 0-2.18-.284-2.809-.866-.635-.589-.941-1.455-.941-2.644v-13.98c0-1.16.306-2.01.938-2.61.638-.604 1.557-.9 2.812-.9h7.468c1.264 0 2.183.287 2.815.881.632.595.935 1.452.935 2.629v13.98c0 1.189-.31 2.055-.942 2.644-.632.582-1.548.866-2.808.866zm-7.468-19.805c-1.756 0-2.474.672-2.474 2.315v13.98c0 1.688.67 2.315 2.474 2.315h7.468c1.803 0 2.473-.627 2.473-2.315v-13.98c0-.845-.185-1.43-.561-1.786-.377-.356-1.006-.53-1.912-.53h-7.468z"/>
            <path d="M65.513 393.43c-.575 0-.948.283-.948.89 0 .293.086.508.24.654.165.158.408.236.708.236s.542-.078.708-.236c.153-.146.24-.364.24-.654-.004-.607-.374-.89-.948-.89z"/>
            <path d="M65.513 395.512c-.39 0-.715-.114-.935-.326-.22-.212-.33-.502-.33-.863 0-.744.473-1.19 1.268-1.19s1.264.446 1.264 1.19c0 .364-.112.654-.329.863-.217.21-.549.326-.938.326zm0-1.78c-.434 0-.629.182-.629.59 0 .204.051.353.147.446.096.092.262.146.479.146.217 0 .38-.048.478-.146.1-.099.147-.245.147-.445.003-.41-.188-.595-.622-.592z"/>
        </g>
    </g>
</svg>
