<svg width="20" height="13" viewBox="0 0 20 13" xmlns="http://www.w3.org/2000/svg">
    <defs>
        <filter id="a">
            <feColorMatrix in="SourceGraphic" values="0 0 0 0 0.003922 0 0 0 0 0.615686 0 0 0 0 0.956863 0 0 0 1.000000 0"/>
        </filter>
    </defs>
    <g filter="url(#a)" transform="translate(-10 -14)" fill="none" fill-rule="evenodd">
        <g fill="#FFF" fill-rule="nonzero">
            <path d="M16.272 26.317c-1.565 0-2.462-.802-2.462-2.2 0-1.397.897-2.199 2.462-2.199 1.564 0 2.462.802 2.462 2.2 0 1.397-.898 2.2-2.462 2.2zm0-3.39c-.935 0-1.333.356-1.333 1.19 0 .836.398 1.191 1.333 1.191.935 0 1.333-.355 1.333-1.19s-.398-1.19-1.333-1.19zm9.36 3.39c-1.564 0-2.462-.802-2.462-2.2 0-1.397.898-2.199 2.463-2.199 1.564 0 2.462.802 2.462 2.2 0 1.397-.898 2.2-2.462 2.2zm0-3.39c-.934 0-1.332.356-1.332 1.19 0 .836.398 1.191 1.333 1.191.935 0 1.333-.355 1.333-1.19s-.401-1.19-1.333-1.19z"/>
            <path d="M23.678 24.558h-5.451c-.334 0-.608-.198-.608-.44s.274-.44.608-.44h5.45c.335 0 .609.198.609.44s-.27.44-.608.44z"/>
            <path d="M28.346 25.438h-.941a.561.561 0 0 1-.562-.558c0-.306.253-.557.562-.557h.94c.24 0 .534-.292.534-.53v-3.26c0-.189-.325-.61-.432-.746-.332-.426-2.86-3.759-3.297-4.36-.127-.176-.408-.312-.64-.312H13.561c-.239 0-.534.292-.534.529v8.15c0 .237.295.53.534.53h.547c.31 0 .562.25.562.556a.561.561 0 0 1-.562.558h-.547c-.41 0-.829-.184-1.152-.502-.323-.318-.505-.736-.505-1.142v-8.15c0-.407.185-.822.505-1.142.32-.32.742-.502 1.152-.502h10.95c.593 0 1.216.312 1.55.775.433.596 2.95 3.909 3.275 4.332.247.32.663.858.663 1.427v3.26c0 .406-.185.822-.506 1.142a1.65 1.65 0 0 1-1.148.502z"/>
            <path d="M12.277 16.808H10.58c-.319 0-.58-.236-.58-.524 0-.289.261-.524.58-.524h1.697c.32 0 .58.235.58.524 0 .288-.26.524-.58.524zm0 2.555H10.58c-.319 0-.58-.236-.58-.524 0-.288.261-.524.58-.524h1.697c.32 0 .58.236.58.524 0 .288-.26.524-.58.524zm0 2.555H10.58c-.319 0-.58-.236-.58-.524 0-.288.261-.524.58-.524h1.697c.32 0 .58.236.58.524 0 .288-.26.524-.58.524z"/>
        </g>
    </g>
</svg>
