<svg width="20" height="23" xmlns="http://www.w3.org/2000/svg">
    <path d="M19.35 21.51c.357 0 .643.298.643.672 0 .37-.289.672-.643.672H.644A.656.656 0 0 1 0 22.182c0-.37.29-.672.644-.672H19.35zM1.753 20.045c-.449 0-.875-.191-1.187-.522a1.866 1.866 0 0 1-.4-1.799l1.769-5.607c.104-.302.28-.572.517-.78C7.317 6.75 12.543 1.76 12.904 1.384A3.887 3.887 0 0 1 15.73.03 4.088 4.088 0 0 1 18.71 1.37 4.783 4.783 0 0 1 20 4.536a4.462 4.462 0 0 1-1.291 3.084C18.065 8.344 8.23 17.64 8.13 17.734a1.41 1.41 0 0 1-.582.347l-5.265 1.864a1.262 1.262 0 0 1-.53.1zm-.361-1.915a.449.449 0 0 0 .104.454c.094.104.24.147.374.108l5.265-1.8a.365.365 0 0 0 .13-.08C8.891 15.269 17.239 7.34 17.792 6.75a3.153 3.153 0 0 0 .878-2.214 3.377 3.377 0 0 0-.865-2.24 2.839 2.839 0 0 0-2.052-.913 2.74 2.74 0 0 0-1.987.912c-.478.523-7.74 7.406-10.491 10.02a.408.408 0 0 0-.117.175l-1.766 5.64z" fill="#019DF4" fill-rule="evenodd"/>
</svg>
