<svg width="16" height="17" viewBox="0 0 16 17" xmlns="http://www.w3.org/2000/svg">
    <defs>
        <filter id="a">
            <feColorMatrix in="SourceGraphic" values="0 0 0 0 1.000000 0 0 0 0 1.000000 0 0 0 0 1.000000 0 0 0 1.000000 0"/>
        </filter>
    </defs>
    <g filter="url(#a)" transform="translate(-228 -393)" fill="none" fill-rule="evenodd">
        <path d="M242.042 408.126v-5.972a3.64 3.64 0 0 1-.596.057c-.692 0-1.341-.205-1.813-.559-.473.354-1.122.559-1.812.559-.692 0-1.34-.205-1.812-.559-.473.354-1.122.559-1.812.559-.697 0-1.348-.207-1.821-.568-.474.359-1.125.568-1.822.568-.207 0-.405-.024-.596-.057v5.97c0 .199.175.36.391.36h3.413v-3.93c0-.574.465-1.04 1.038-1.04h2.416a1.04 1.04 0 0 1 1.038 1.04v3.93h3.392c.22.003.396-.161.396-.358zm-4.765.361v-3.934c0-.005-.018-.03-.059-.03h-2.415c-.041 0-.06.025-.06.03v3.932c-.002.002 2.534.002 2.534.002zm-8.15-8.546c-.098.16-.146.242-.146.343 0 .431.647.915 1.576.915.587 0 1.127-.202 1.409-.526 0 0 .152-.117.2-.148.078-.047.216-.044.216-.044.16.002.31.072.415.195.278.319.817.52 1.404.52.583 0 1.12-.199 1.405-.518 0 0 .119-.122.196-.162.07-.035.21-.024.21-.024.143.029.304.066.41.184.286.323.823.523 1.406.523.58 0 1.125-.209 1.405-.514 0 0 .139-.12.193-.155.073-.047.214-.035.214-.035.155 0 .305.068.41.185.282.32.82.519 1.402.519.93 0 1.576-.484 1.576-.918 0-.178-.105-.326-.194-.42l-.002-.002c-.173-.186-.303-.566-.697-2.042-.07-.259-.127-.48-.166-.604l-.986-3.204-9.966.03c-.137.444-.328 1.085-.535 1.773-.643 2.131-1.068 3.547-1.157 3.758a2.98 2.98 0 0 1-.198.37zm14.873.345c0 .624-.385 1.166-.979 1.516v6.324c0 .756-.615 1.37-1.37 1.37h-11.302c-.755 0-1.37-.614-1.37-1.37v-6.324c-.594-.352-.979-.892-.979-1.518 0-.4.173-.679.298-.885.046-.073.091-.146.128-.23.082-.202.683-2.2 1.12-3.66.218-.727.421-1.401.56-1.856a.88.88 0 0 1 .835-.625l10.11-.028h.003c.385 0 .722.251.84.63l1.004 3.285c.041.13.103.364.175.639.126.464.378 1.415.488 1.64.286.32.439.695.439 1.092z" fill="#FFF"/>
    </g>
</svg>
