<svg width="24" height="24" xmlns="http://www.w3.org/2000/svg">
    <path d="M12.519 22.484c3-.054 9.975-1.184 9.975-10.457 0-9.275-7.015-10.446-10.033-10.518-.27-.007-.58-.01-.88-.01h-.21c-2.97.027-9.876 1.099-9.876 10.457 0 9.378 6.972 10.49 9.969 10.532l.352.003c.249 0 .491-.003.703-.007zm-.02-22.47C14.85.068 23.992.997 23.992 12.03c0 11.057-9.16 11.914-11.447 11.959-.218.003-.47.007-.724.007-.126 0-.252-.004-.375-.004C9.04 23.956 0 23.085 0 11.96 0 .847 8.955.02 11.362 0h.218c.314 0 .638.003.918.014zm-.506 16.243a.751.751 0 0 1-.75-.75V5.147a.751.751 0 0 1 1.501 0v10.358a.755.755 0 0 1-.75.751zm0 1.021c.471 0 .854.382.857.853a.859.859 0 0 1-.853.857h-.004a.855.855 0 0 1 0-1.71z" fill="#019DF4" fill-rule="evenodd"/>
</svg>
