<svg width="18" height="20" xmlns="http://www.w3.org/2000/svg">
    <defs>
        <filter id="a">
            <feColorMatrix in="SourceGraphic" values="0 0 0 0 0.043137 0 0 0 0 0.152941 0 0 0 0 0.223529 0 0 0 1.000000 0"/>
        </filter>
    </defs>
    <g filter="url(#a)" transform="translate(-31 -445)" fill="none" fill-rule="evenodd">
        <path d="M40.012 455.014c-1.6 0-2.844-.415-3.707-1.237-.894-.854-1.348-2.12-1.348-3.764 0-1.645.454-2.913 1.348-3.77.863-.825 2.108-1.243 3.707-1.243 1.598 0 2.846.418 3.712 1.243.9.857 1.354 2.125 1.354 3.77 0 1.644-.457 2.91-1.357 3.764-.863.822-2.11 1.237-3.71 1.237zm0-8.876c-1.289 0-2.266.31-2.908.925-.66.634-.997 1.627-.997 2.953 0 1.325.336 2.313.997 2.944.639.609 1.616.92 2.908.92 1.29 0 2.271-.311 2.915-.92.664-.631 1.004-1.621 1.004-2.942-.003-2.611-1.286-3.88-3.92-3.88zM48.422 465H31.601a.574.574 0 0 1-.575-.569v-1.664c0-1.593.5-2.95 1.45-3.93 1.034-1.066 2.57-1.632 4.444-1.632h6.168c1.875 0 3.416.563 4.451 1.63.955.982 1.458 2.339 1.458 3.932v1.664a.574.574 0 0 1-.575.569zm-16.246-1.138h15.671v-1.095c0-1.292-.394-2.379-1.136-3.144-.828-.85-2.047-1.28-3.623-1.28H36.92c-1.575 0-2.792.43-3.614 1.28-.739.762-1.13 1.85-1.13 3.144v1.095z" fill="#019DF4" fill-rule="nonzero"/>
    </g>
</svg>
