<svg width="25" height="18" xmlns="http://www.w3.org/2000/svg">
    <defs>
        <filter id="a">
            <feColorMatrix in="SourceGraphic" values="0 0 0 0 0.043137 0 0 0 0 0.152941 0 0 0 0 0.223529 0 0 0 1.000000 0"/>
        </filter>
    </defs>
    <g filter="url(#a)" transform="translate(-27 -682)" fill="none" fill-rule="evenodd">
        <path d="M28.817 683.558a.284.284 0 0 0-.284.283v14.345a.284.284 0 0 0 .284.283H50.18a.284.284 0 0 0 .285-.283v-14.345a.284.284 0 0 0-.285-.283H28.817zM50.176 700H28.817A1.818 1.818 0 0 1 27 698.186v-14.345c0-.999.814-1.81 1.817-1.81H50.18c1.003 0 1.817.811 1.817 1.81v14.345a1.823 1.823 0 0 1-1.82 1.814zm-11.924-6.068h-7.923a.763.763 0 1 1 0-1.527h7.923a.763.763 0 1 1 0 1.527zm-2.546-4.077h-5.377a.766.766 0 0 1-.769-.764c0-.423.345-.764.769-.764h5.377c.423 0 .768.341.768.764a.77.77 0 0 1-.768.764zm9.214-3.495c.722 0 1.287.191 1.678.566.406.389.612.968.612 1.718s-.206 1.326-.612 1.718c-.391.375-.956.563-1.678.563s-1.288-.19-1.675-.563c-.406-.388-.608-.964-.608-1.718 0-.75.202-1.326.608-1.714.39-.382.956-.57 1.675-.57zm0 1.323c-.207 0-.576.024-.75.194-.179.17-.207.556-.207.767 0 .212.028.593.203.76.131.127.398.195.754.195.359 0 .63-.068.76-.194.178-.17.203-.55.203-.76 0-.212-.025-.594-.206-.764-.178-.17-.548-.198-.757-.198zm1.397 4.237c.847 0 1.544.26 2.013.744.43.446.658 1.067.658 1.793v.76a.26.26 0 0 1-.26.26h-7.606a.255.255 0 0 1-.26-.257v-.763c0-.726.228-1.347.654-1.793.466-.484 1.163-.744 2.01-.744h2.791zm0 1.327h-2.791c-.335 0-.786.058-1.053.337-.153.16-.228.368-.263.57h5.42a1.049 1.049 0 0 0-.264-.57c-.263-.28-.718-.337-1.049-.337z" fill="#019DF4"/>
    </g>
</svg>
