<svg width="20" height="18" xmlns="http://www.w3.org/2000/svg">
    <g fill="#0B2739" fill-rule="nonzero">
        <path d="M17.076 16.996H2.616c-1.436 0-2.608-1.202-2.608-2.683V2.697C.008 1.22 1.178.014 2.617.014h14.54c1.437 0 2.61 1.203 2.61 2.683V14.23c0 1.524-1.21 2.767-2.69 2.767zM2.616 1.127c-.841 0-1.526.704-1.526 1.57v11.616c0 .866.685 1.57 1.527 1.57h14.46c.886 0 1.608-.741 1.608-1.654V2.697c0-.866-.685-1.57-1.527-1.57H2.617z"/>
        <path d="M18.952 5.108H.732a.546.546 0 0 1-.538-.553c0-.305.24-.557.538-.557h18.22c.299 0 .541.25.541.554a.553.553 0 0 1-.54.556zm-11.02 8.205c0-.185.026-.35.08-.495.053-.145.143-.293.27-.45l1.16-1.454c.36-.449.609-.79.741-1.028.135-.238.2-.475.2-.713 0-.264-.079-.46-.237-.594-.174-.156-.476-.235-.907-.235-.371 0-.763.038-1.169.116v-.953c.186-.05.406-.087.66-.122.253-.031.495-.049.73-.049.819 0 1.416.191 1.788.574.284.292.428.692.428 1.194 0 .376-.093.738-.279 1.083-.186.345-.518.785-.994 1.324l-1.04 1.168h2.412v.916H7.966a.874.874 0 0 1-.034-.282zM5.493 2.156c-.248 0-.408.133-.408.423 0 .139.036.24.104.31.07.075.177.113.304.113a.405.405 0 0 0 .304-.113.438.438 0 0 0 .104-.31c0-.287-.16-.423-.408-.423z"/>
        <path d="M5.493 3.422a.794.794 0 0 1-.597-.238.85.85 0 0 1-.22-.602c0-.505.33-.844.817-.844.487 0 .817.34.817.844 0 .307-.118.498-.22.602a.794.794 0 0 1-.597.238z"/>
        <g>
            <path d="M14.296 2.156c-.248 0-.409.133-.409.423 0 .139.037.24.105.31.07.075.177.113.304.113a.405.405 0 0 0 .304-.113.438.438 0 0 0 .104-.31c0-.287-.16-.423-.408-.423z"/>
            <path d="M14.296 3.422a.794.794 0 0 1-.597-.238.85.85 0 0 1-.22-.602c0-.505.33-.844.817-.844.293 0 .476.12.577.218.11.107.24.301.24.623 0 .307-.119.498-.22.602a.784.784 0 0 1-.597.24z"/>
        </g>
    </g>
</svg>
