<svg width="20" height="22" xmlns="http://www.w3.org/2000/svg">
    <g fill="#0B2739" fill-rule="nonzero">
        <path d="M12.29 21.49H4.655c-2.325 0-3.453-1.144-3.453-3.498V4.061c0-2.322 1.16-3.498 3.453-3.498h7.635c1.176 0 2.03.289 2.608.884.568.584.845 1.438.845 2.614v1.506a.597.597 0 0 1-.595.595.597.597 0 0 1-.595-.595V4.061c0-.849-.167-1.435-.506-1.783-.34-.349-.917-.524-1.757-.524H4.655c-1.628 0-2.262.646-2.262 2.307v13.93c0 .858.166 1.445.509 1.793.342.348.913.515 1.753.515h7.635c.84 0 1.411-.17 1.754-.515.342-.345.509-.935.509-1.792v-3.004c0-.327.268-.595.595-.595.327 0 .595.268.595.595v3.004c0 2.354-1.13 3.498-3.453 3.498z"/>
        <path d="M8.462 16.831c-.613 0-1.015.324-1.015 1.018 0 .333.092.58.256.75.179.182.438.268.76.268.32 0 .58-.086.758-.268.164-.167.256-.417.256-.75-.003-.697-.402-1.018-1.015-1.018zm9.094-1.59h-4.852c-.738 0-1.214-.476-1.214-1.214V7.541c0-.14.065-.274.178-.358l2.322-1.735a.457.457 0 0 1 .268-.09h3.298c.738 0 1.215.477 1.215 1.215v7.457c-.003.735-.48 1.211-1.215 1.211zm-5.173-7.477v6.263c0 .25.071.321.321.321h4.852c.25 0 .322-.071.322-.321V6.573c0-.25-.072-.321-.322-.321h-3.15l-2.022 1.511-.001.001z"/>
        <path d="M16.934 13.628h-3.587a.299.299 0 0 1-.298-.298V9.565c0-.164.134-.298.298-.298h3.587c.164 0 .298.134.298.298v3.765a.297.297 0 0 1-.298.298zm-3.286-.595h2.988v-3.17h-2.991l.003 3.17z"/>
        <path d="M14.541 11.056a.299.299 0 0 1-.298-.298V9.565c0-.164.134-.298.298-.298.163 0 .297.134.297.298v1.193a.297.297 0 0 1-.297.298zm1.193 0a.299.299 0 0 1-.297-.298V9.565c0-.164.134-.298.297-.298.164 0 .298.134.298.298v1.193a.297.297 0 0 1-.298.298zm-1.193 2.572a.299.299 0 0 1-.298-.298v-1.193c0-.164.134-.298.298-.298.163 0 .297.134.297.298v1.193a.297.297 0 0 1-.297.298zm1.193 0a.299.299 0 0 1-.297-.298v-1.193c0-.164.134-.298.297-.298.164 0 .298.134.298.298v1.193a.297.297 0 0 1-.298.298z"/>
        <path d="M16.934 11.056h-3.587a.299.299 0 0 1-.298-.298c0-.163.134-.297.298-.297h3.587c.164 0 .298.134.298.297a.299.299 0 0 1-.298.298zm0 1.378h-3.587a.299.299 0 0 1-.298-.297c0-.164.134-.298.298-.298h3.587c.164 0 .298.134.298.298a.299.299 0 0 1-.298.297z"/>
    </g>
</svg>
