<svg width="20" height="15" xmlns="http://www.w3.org/2000/svg" xmlns:xlink="http://www.w3.org/1999/xlink">
    <defs>
        <filter id="a">
            <feColorMatrix in="SourceGraphic" values="0 0 0 0 0.043137 0 0 0 0 0.152941 0 0 0 0 0.223529 0 0 0 1.000000 0"/>
        </filter>
        <path id="b" d="M0 0h20v15H0z"/>
    </defs>
    <g filter="url(#a)" transform="translate(-3)" fill="none" fill-rule="evenodd">
        <g transform="translate(3)">
            <mask id="c" fill="#fff">
                <use xlink:href="#b"/>
            </mask>
            <path d="M19.985 12.722 20 2.206C19.954.365 18.756-.027 18.266.003L1.76 0C1.269 0 .845.181.538.524c-.58.645-.541 1.625-.535 1.697v10.54c0 .733.196 1.308.586 1.71.498.511 1.121.529 1.17.514.392 0 6.622.015 11.27.015 2.405 0 4.386-.003 4.913-.015.905-.015 1.394-.4 1.645-.717.46-.59.427-1.313.398-1.546M1.756 1.287l16.525.003c.013 0 .347.012.457.594l-7.951 5.074c-.982.678-1.865.042-1.93-.01l-7.61-5.064c.025-.175.08-.368.181-.483.052-.05.134-.114.328-.114m16.88 12.167c-.157.196-.478.242-.717.248-1.537.027-16.016-.003-16.175 0a.53.53 0 0 1-.302-.148c-.181-.187-.219-.533-.219-.79v-9.37l6.942 4.618c.043.033.735.552 1.688.552.478 0 1.024-.133 1.588-.522l7.332-4.676-.012 9.398.009.103c-.003.003.045.367-.134.587" fill="#019DF4" mask="url(#c)"/>
        </g>
    </g>
</svg>
