<svg xmlns="http://www.w3.org/2000/svg" width="15.524" height="17.462">
    <path data-name="Trazado 4710" d="M46.662 8.743a4.446 4.446 0 0 1-3.2-1.08A4.378 4.378 0 0 1 42.3 4.377a4.394 4.394 0 0 1 1.16-3.292A4.438 4.438 0 0 1 46.662 0a4.454 4.454 0 0 1 3.207 1.085 4.377 4.377 0 0 1 1.17 3.291 4.362 4.362 0 0 1-1.172 3.286 4.453 4.453 0 0 1-3.2 1.08zm7.265 8.718H39.4a.5.5 0 0 1-.5-.5v-1.449a4.829 4.829 0 0 1 1.252-3.43 5.16 5.16 0 0 1 3.84-1.426h5.328a5.171 5.171 0 0 1 3.845 1.423 4.822 4.822 0 0 1 1.259 3.433v1.453a.5.5 0 0 1-.496.497z" transform="translate(-38.9)" style="fill:#019df4"/>
</svg>
