<svg width="50" height="102" xmlns="http://www.w3.org/2000/svg" xmlns:xlink="http://www.w3.org/1999/xlink">
    <defs>
        <filter color-interpolation-filters="auto" id="a">
            <feColorMatrix in="SourceGraphic" values="0 0 0 0 0.741176 0 0 0 0 0.894118 0 0 0 0 0.643137 0 0 0 1.000000 0"/>
        </filter>
        <path id="b" d="M0 .091h49.991v6.571H0z"/>
    </defs>
    <g fill="none" fill-rule="evenodd">
        <g filter="url(#a)">
            <g transform="translate(0 94.918)">
                <mask id="c" fill="#fff">
                    <use xlink:href="#b"/>
                </mask>
                <path d="M49.991 3.377c0 1.814-11.19 3.285-24.995 3.285C11.19 6.662 0 5.192 0 3.377 0 1.562 11.19.09 24.996.09 38.8.091 49.99 1.562 49.99 3.377" fill="#019AF1" mask="url(#c)"/>
            </g>
        </g>
        <path d="M11.413 6.718c-.707-.721-1.161-.307-.824.538.648 1.63.6 2.918-.222.439-.165-.501-.75-1.47-1.123-1.37-.786.21.035 1.931.294 2.725-.122.695-1.03-1.087-1.378-1.296-1.582-.944.027 2.412-.142 2.601-.477.53-1.212-1.883-1.659-.821-.336.795 1.236 2.755 1.367 3.5.107.61-.24 1.072.364 1.498 1.349.952 3.758-1.223 4.018-1.927.616-1.667.774-4.389-.695-5.887z" fill="#F5CCBD"/>
        <path d="M11.66 13.233c.542-.415 1.862-1.442 2.066-2.131.111-.377.028-.908-.49-.685-.314.136-.574.467-.758.737-.167.247-.423.457-.565.712-.148.261-.325 1.422-.254 1.367" fill="#F5CCBD"/>
        <path d="M7.737 14.693c.898 2.948 3.993 20.43 10.796 17.402 2.473-1.1.974-6.78-1.457-10.59-1.83-2.866-4.146-6.358-5.147-8.394-.48.545-3.676 1.635-4.192 1.582" fill="#0B2739"/>
        <path d="M17.43 25.266c2.37 1.486 2.274 7-.663 7.168.56.039 1.147-.063 1.766-.339 2.473-1.1.974-6.78-1.457-10.59-1.83-2.866-4.146-6.358-5.147-8.394-.247.28-1.21.704-2.16 1.042.836.284 2.238.488 3.5 3.726.349.897 1.21 1.975 1.385 2.92" fill="#0B2739"/>
        <path d="M22.55 15.853c-1.001.819-5.95 7.834-6.382 10.46-.434 2.625 2.535 3.676 4.208 2.896 2.315-1.078 8.055-7.806 8.6-9.763.858-3.07-3.78-5.76-6.427-3.593" fill="#0B2739"/>
        <path d="M15.443 95.535c.02.933 2.384.725 2.478.232.238-1.245.792-6.224.792-6.224l-3.755.087s.455 4.536.485 5.905" fill="#F5CCBD"/>
        <path d="M13 68.542c-1.306 6.912 1.331 25.545 1.331 25.545 3.138 1.232 5.712.005 5.712.005s2.509-16.502 2.525-24.708c.008-4.189-8.734-5.258-9.568-.842" fill="#22445D"/>
        <path d="M18.187 44.757C16.93 47.33 13.655 64.892 13 68.542c-1.266 7.045 6.803 8.402 9.457 3.809 6.337-10.971 10.32-21.87 10.32-24.141 0-5.402-12.54-7.649-14.59-3.453" fill="#22445D"/>
        <path d="M20.728 66.562a187.952 187.952 0 0 0-1.753 3.542c-2.092 4.369-2.18 8.64-1.4 13.375.443 2.692 1.049 5.414.987 8.16-.023.99-.142 1.959-.236 2.916 1.057-.15 1.717-.463 1.717-.463s2.509-16.502 2.525-24.708c.002-1.23-.754-2.19-1.84-2.822" fill="#0B2739"/>
        <path d="M28.432 43.533c-.005 9.456-5.55 18.412-9.457 26.571a18.454 18.454 0 0 0-1.568 4.906c1.913.126 3.948-.752 5.05-2.66 6.337-10.97 10.32-21.869 10.32-24.14 0-2.103-1.903-3.725-4.345-4.677" fill="#0B2739"/>
        <path d="M18.053 97.682s.727.339.378.833c-.349.494-2.326.49-2.326.49s-2.138.134-2.754.091c-.617-.041-2.66-.47-3.184-1.117-.523-.647.206-.866.206-.866l7.68.57z" fill="#B74642"/>
        <path d="M18.013 95.364s.765 1.015.04 2.318c0 0-2.373.723-3.208.687-.837-.037-3.472.074-4.56-.945 0 0-.309-.94 1.371-.918 1.68.021 3.593-1.77 3.593-1.77s.255.579 1.072.976c.818.398 1.692-.348 1.692-.348" fill="#E65D4E"/>
        <path d="M39.417 96.241c.4.833 2.45-.42 2.333-.908-.296-1.232-1.838-5.976-1.838-5.976l-3.356 1.771s2.272 3.89 2.86 5.113" fill="#F5CCBD"/>
        <path d="M26.14 72.418c1.656 6.828 11.68 22.46 11.68 22.46 3.337-.303 5.158-2.572 5.158-2.572s-4.504-16.03-7.854-23.444c-1.711-3.785-10.042-.808-8.984 3.556" fill="#22445D"/>
        <path d="M35.995 70.914c-.24.92-.678 1.773-1.313 2.454 1.67 2.32 2.927 4.91 3.65 7.85.496 2.015.397 4.347 1.23 6.224.831 1.872 2.373 3.247 3.276 5.022.09-.097.14-.158.14-.158s-3.774-13.432-6.983-21.392" fill="#0B2739"/>
        <path d="M26.473 46.212c-.738 2.786-.58 20.679-.523 24.393.11 7.167 8.275 6.797 9.994 1.738 4.105-12.083 5.919-23.598 5.483-25.823-1.035-5.292-13.75-4.85-14.954-.308" fill="#22445D"/>
        <path d="M41.427 46.52c-1.013-5.179-13.204-4.864-14.854-.591.243 9.03 5.805 10.216 8.36 12.988 5.221 5.668-.281 10.942-.972 15.456-.041.27-.103.521-.175.762a5.427 5.427 0 0 0 2.158-2.792c4.105-12.083 5.918-23.598 5.483-25.824" fill="#0B2739"/>
        <path d="M41.768 97.682s.727.339.378.833c-.349.494-2.326.49-2.326.49s-2.137.134-2.754.091c-.617-.041-2.66-.47-3.184-1.117-.523-.647.206-.866.206-.866l7.68.57z" fill="#B74642"/>
        <path d="M41.727 95.364s.766 1.015.041 2.318c0 0-2.373.723-3.209.687-.836-.037-3.471.074-4.559-.945 0 0-.31-.94 1.371-.918 1.68.021 3.358-1.566 3.358-1.566s.49.375 1.307.772c.818.398 1.691-.348 1.691-.348" fill="#E65D4E"/>
        <path d="M33.579 21.308c.064-1.317-3.398-2.492-4.404 1.791-1.006 4.284-.327 4.186-1.322 2.91-.995-1.276-4.761-6.103-5.557-5.598-1.475.937.196 8.306 4.199 11.167 4.002 2.861 4.591 6.868 6.578 3.321s.207-7.426.506-13.59" fill="#7743E6"/>
        <path d="M33.395 14.455c-2.639-.724-6.316.07-7.82.701-2.856 1.197-4.859 6.645-5.338 9.628-.696 4.332-4.1 25.667-4.1 25.667 10.742.12 16.606 7.59 25.38 5.947.334-3.565-.19-33.685-2.76-38.474-1.453-2.704-4.02-3.1-5.362-3.469" fill="#FFF"/>
        <path d="M26.426 14.917s-1.585 1.706-2.805 8.061c-1.22 6.355-1.12 20.361-3.148 28.768 0 0-3.103.36-5.897-.924L20.3 21.225s1.742-6.18 6.126-6.308" fill="#22445D"/>
        <path d="M18.932 46.162c-1.625 2.903 1.286.27-.486 5.594 1.191.085 2.026-.01 2.026-.01.896-3.713 1.377-8.52 1.74-13.276-.717 2.26-2.15 5.672-3.28 7.692" fill="#0B2739"/>
        <path d="M23.88 4.759s.511-2.943 4.152-3.278c3.64-.335 4.604 1.82 4.72 3.999.117 2.178-.748 3.8-2.046 3.406-1.298-.393-6.825-4.127-6.825-4.127" fill="#F28D15"/>
        <path d="M30.898 6.136c0-.781-2.65 1.2-2.65 1.2s2.106 6.655-.6 7.292l.902 2.968s2.637-.825 6.087-2.756c0 0-3.74-1.787-3.74-8.704" fill="#F5CCBD"/>
        <path d="M21.823 2.691s.326 3.476 1.323 4.85c.996 1.376 2.478-3.993 1.869-4.593-.61-.602-3.192-.257-3.192-.257" fill="#F28D15"/>
        <path d="M31.385 4.535c-.582.046-.637.667-.637.667s-.242-1.6-1.723-2.472c-1.479-.873-4.959.045-5.71 1.522-.75 1.48.2 5.2 3.032 8.167.58.607 3.37-1.14 4.253-2.706.883-1.565.732-2.441.732-2.441s.526.17.86-.565c.333-.734.263-2.255-.807-2.172" fill="#F5CCBD"/>
        <path d="M21.38 3.7c.387.48 1.01.798 1.643.707 2.443-.35 6.288-2.789 7.398.435a8.942 8.942 0 0 0 .958 1.979s.685-1.888.767-2.331c.731-3.933-2.722-5.816-9.323-3.445-1.899.683-1.872-.3-3.377.254l1.934 2.4z" fill="#F28D15"/>
        <path d="M38.44 15.777c-1.267-.631-4.338-2.316-6.215 1.667-1.232 2.615-4.782 30.722-4.949 36.498 0 0 14.794 2.803 17.506 1.632 0 0-1.425-37.346-6.343-39.797" fill="#22445D"/>
        <path d="M41.547 22.84c-.047.206-.091.415-.148.613-.531 1.841-6.143-2.075-6.69-.13-.158.565 4.158 6.712 3.601 9.558-1.06 5.426.667 10.798 1.434 12.942.478 1.333-.27 5.992-2.359 7.992-.269.257-1.506 1.214-1.815 1.42 3.809.505 8.168 1.047 9.437.493 0 0-.91-21.312-3.46-32.887" fill="#0B2739"/>
        <path d="M41.171 45.267c.363.618-.15.898-.315 1.488-.202.72.375 3.091-.27 3.676-.862.78-.488-1.673-1.147-1.383-.234.105-.224 3.745-1.247 2.283-.226-.323-.28-2.277-.688-1.7-.108.815-.106 2.68-.907 2.563-.379-.055-.492-1.152-.426-1.666.324-2.548-.273-1.409-.388.308-.06.89-.649 1.086-.977.164-.683-1.916.63-4.3 1.905-5.56.538-.531 3.65-1.551 4.46-.173" fill="#F5CCBD"/>
        <path d="M36.57 46.18c-.24.174-.561.264-.818.42-.282.172-.66.368-1.003.368-.564 0-.41-.51-.147-.805.48-.54 2.115-.95 2.784-1.113.088-.021-.572.953-.817 1.13" fill="#F5CCBD"/>
        <path d="M33.507 32.274c1.61 3.67 2.838 9.97 3.281 13.155l4.526.44s1.392-18.396-6.218-19.486c0 0-3.2 2.22-1.59 5.89" fill="#22445D"/>
        <path d="M30.118 20.05c.113 1.625 4.54 12.018 6.533 14.708 1.994 2.69 4.646.913 4.951-1.29.306-2.202-1.668-14.362-3.023-16.568-2.126-3.464-8.762-1.151-8.461 3.15" fill="#22445D"/>
        <path d="M40.639 32.008c-.169 2.219-4.28 6.808-1.638 5.097 1.497-.957 2.207-2.052 2.527-2.844 1.02-2.526-.375-11.003-1.282-15.402-1.111-.28-1.823 2.863-.983 5.088.277.735 1.545 5.841 1.376 8.06" fill="#0B2739"/>
        <path d="M4.713 7.913a1.032 1.032 0 0 0-.483.465 1.02 1.02 0 0 0-.037.797M3.99 7.126a2.4 2.4 0 0 0-.709 1.2 2.354 2.354 0 0 0 .064 1.303M14.041 8.052c.057.07.227.295.227.625a1.03 1.03 0 0 1-.322.732M15.044 7.653c.078.2.253.728.102 1.382-.14.606-.485.99-.64 1.145" stroke="#C2C3C4" stroke-width=".3"/>
    </g>
</svg>
