<svg width="64" height="131" xmlns="http://www.w3.org/2000/svg" xmlns:xlink="http://www.w3.org/1999/xlink">
    <defs>
        <filter id="a">
            <feColorMatrix in="SourceGraphic" values="0 0 0 0 0.741176 0 0 0 0 0.894118 0 0 0 0 0.643137 0 0 0 1.000000 0"/>
        </filter>
        <path id="b" d="M0 0h63.762v8.41H0z"/>
    </defs>
    <g fill="none" fill-rule="evenodd">
        <g filter="url(#a)">
            <g transform="translate(0 121.59)">
                <mask id="c" fill="#fff">
                    <use xlink:href="#b"/>
                </mask>
                <path d="M63.762 4.205c0 2.322-14.274 4.205-31.881 4.205S0 6.527 0 4.205 14.274 0 31.88 0c17.608 0 31.882 1.883 31.882 4.205" fill="#019AF1" mask="url(#c)"/>
            </g>
        </g>
        <path d="M14.557 8.598c-.902-.924-1.481-.394-1.051.689.827 2.086.766 3.734-.283.56-.211-.64-.958-1.88-1.432-1.753-1.004.27.044 2.472.374 3.488-.155.89-1.312-1.392-1.758-1.658-2.016-1.209.036 3.086-.18 3.328-.609.678-1.546-2.41-2.116-1.051-.43 1.018 1.576 3.526 1.743 4.48.137.78-.307 1.371.465 1.917 1.72 1.218 4.792-1.566 5.124-2.467.785-2.133.988-5.616-.886-7.533z" fill="#F5CCBD"/>
        <path d="M14.871 16.935c.693-.53 2.376-1.845 2.636-2.727.142-.483.036-1.162-.624-.876-.402.173-.733.597-.968.943-.213.315-.54.584-.72.911-.189.334-.415 1.819-.324 1.749" fill="#F5CCBD"/>
        <path d="M9.868 18.804c1.145 3.772 5.093 26.146 13.77 22.27 3.154-1.408 1.243-8.677-1.859-13.551-2.333-3.67-5.287-8.138-6.564-10.743-.612.696-4.689 2.091-5.347 2.024" fill="#0B2739"/>
        <path d="M22.23 32.335c3.025 1.902 2.901 8.96-.844 9.174.713.049 1.463-.081 2.252-.434 3.155-1.409 1.243-8.678-1.859-13.552-2.333-3.67-5.287-8.138-6.564-10.743-.314.357-1.544.9-2.755 1.333 1.067.363 2.855.625 4.464 4.768.445 1.149 1.543 2.528 1.767 3.737" fill="#0B2739"/>
        <path d="M28.761 20.288c-1.276 1.048-7.587 10.026-8.14 13.387-.552 3.36 3.234 4.705 5.368 3.707 2.952-1.38 10.274-9.991 10.97-12.495 1.093-3.93-4.821-7.372-8.198-4.599" fill="#0B2739"/>
        <path d="M19.696 122.264c.026 1.194 3.041.927 3.162.297.303-1.593 1.01-7.965 1.01-7.965l-4.79.11s.58 5.806.618 7.558" fill="#F5CCBD"/>
        <path d="M16.58 87.72c-1.665 8.845 1.699 32.691 1.699 32.691 4.002 1.576 7.286.006 7.286.006s3.199-21.12 3.22-31.62c.01-5.361-11.14-6.73-12.204-1.078" fill="#22445D"/>
        <path d="M23.197 57.279c-1.603 3.294-5.78 25.769-6.616 30.44-1.614 9.015 8.678 10.753 12.061 4.874 8.083-14.04 13.164-27.988 13.164-30.895 0-6.913-15.995-9.789-18.61-4.419" fill="#22445D"/>
        <path d="M26.437 85.185c-.77 1.53-1.524 3.042-2.235 4.533-2.668 5.59-2.78 11.057-1.787 17.116.566 3.446 1.34 6.93 1.26 10.444-.029 1.268-.18 2.507-.301 3.732 1.348-.192 2.19-.593 2.19-.593s3.2-21.12 3.22-31.62c.004-1.576-.96-2.803-2.347-3.612" fill="#0B2739"/>
        <path d="M36.264 55.713c-.006 12.101-7.08 23.563-12.062 34.005a23.674 23.674 0 0 0-2 6.279c2.44.16 5.036-.963 6.44-3.404 8.083-14.04 13.164-27.988 13.164-30.895 0-2.691-2.427-4.766-5.542-5.985" fill="#0B2739"/>
        <path d="M23.026 125.012s.927.433.482 1.066c-.445.632-2.967.626-2.967.626s-2.726.172-3.512.118c-.788-.053-3.394-.602-4.061-1.43-.668-.828.262-1.108.262-1.108l9.796.728z" fill="#B74642"/>
        <path d="M22.975 122.045s.976 1.3.051 2.967c0 0-3.027.925-4.092.878-1.067-.046-4.428.095-5.815-1.209 0 0-.395-1.202 1.748-1.175 2.143.028 4.583-2.266 4.583-2.266s.325.742 1.367 1.25c1.043.51 2.158-.445 2.158-.445" fill="#E65D4E"/>
        <path d="M50.275 123.168c.51 1.066 3.124-.54 2.975-1.163-.377-1.576-2.344-7.648-2.344-7.648l-4.28 2.267s2.898 4.979 3.649 6.544" fill="#F5CCBD"/>
        <path d="M33.341 92.679c2.112 8.739 14.897 28.745 14.897 28.745 4.257-.39 6.58-3.293 6.58-3.293s-5.745-20.514-10.019-30.002c-2.182-4.845-12.807-1.035-11.458 4.55" fill="#22445D"/>
        <path d="M45.91 90.755c-.306 1.178-.865 2.268-1.674 3.14 2.13 2.97 3.732 6.283 4.656 10.047.631 2.578.506 5.563 1.568 7.965 1.06 2.395 3.027 4.156 4.178 6.426.115-.123.18-.202.18-.202s-4.815-17.19-8.908-27.376" fill="#0B2739"/>
        <path d="M33.766 59.141c-.942 3.565-.74 26.465-.668 31.218.14 9.172 10.554 8.698 12.747 2.224 5.236-15.463 7.55-30.2 6.994-33.048-1.32-6.772-17.538-6.207-19.073-.394" fill="#22445D"/>
        <path d="M52.839 59.535c-1.292-6.628-16.842-6.224-18.946-.757.31 11.558 7.404 13.075 10.662 16.623 6.66 7.254-.358 14.004-1.24 19.78-.052.345-.13.667-.222.976a6.942 6.942 0 0 0 2.752-3.574c5.236-15.463 7.549-30.2 6.994-33.048" fill="#0B2739"/>
        <path d="M53.274 125.012s.927.433.482 1.066c-.445.632-2.967.626-2.967.626s-2.726.172-3.513.118c-.787-.053-3.394-.602-4.06-1.43-.668-.828.262-1.108.262-1.108l9.796.728z" fill="#B74642"/>
        <path d="M53.222 122.045s.976 1.3.052 2.967c0 0-3.027.925-4.093.878-1.066-.046-4.428.095-5.815-1.209 0 0-.395-1.202 1.749-1.175 2.142.028 4.283-2.003 4.283-2.003s.624.48 1.667.988c1.042.508 2.157-.446 2.157-.446" fill="#E65D4E"/>
        <path d="M42.828 27.27c.082-1.686-4.333-3.19-5.616 2.292-1.284 5.482-.417 5.356-1.686 3.724-1.269-1.633-6.074-7.81-7.088-7.164-1.882 1.2.25 10.629 5.355 14.29 5.105 3.663 5.856 8.79 8.39 4.251 2.535-4.54.264-9.503.645-17.393" fill="#7743E6"/>
        <path d="M42.594 18.5c-3.366-.927-8.056.09-9.974.897-3.642 1.532-6.197 8.504-6.808 12.32-.888 5.545-5.23 32.85-5.23 32.85 13.7.152 21.18 9.714 32.372 7.61.426-4.562-.244-43.11-3.522-49.238-1.852-3.46-5.126-3.968-6.838-4.44" fill="#FFF"/>
        <path d="M33.706 19.09s-2.022 2.184-3.578 10.317-1.43 26.058-4.016 36.817c0 0-3.957.46-7.521-1.183l7.301-37.878s2.221-7.908 7.814-8.073" fill="#22445D"/>
        <path d="M24.147 59.077c-2.073 3.716 1.64.346-.62 7.159 1.52.109 2.585-.012 2.585-.012 1.142-4.752 1.755-10.903 2.218-16.99-.914 2.89-2.742 7.258-4.183 9.843" fill="#0B2739"/>
        <path d="M30.459 6.09s.65-3.766 5.294-4.195c4.644-.429 5.873 2.33 6.022 5.118.148 2.787-.955 4.863-2.61 4.36-1.657-.504-8.706-5.283-8.706-5.283" fill="#F28D15"/>
        <path d="M39.41 7.853c0-1-3.382 1.536-3.382 1.536s2.688 8.516-.763 9.331l1.15 3.799s3.363-1.056 7.764-3.527c0 0-4.77-2.287-4.77-11.139" fill="#F5CCBD"/>
        <path d="M27.835 3.444s.415 4.448 1.686 6.208c1.272 1.76 3.162-5.111 2.384-5.88-.778-.77-4.07-.328-4.07-.328" fill="#F28D15"/>
        <path d="M40.03 5.803c-.742.06-.812.854-.812.854s-.31-2.048-2.197-3.164c-1.887-1.117-6.325.058-7.283 1.95-.958 1.892.254 6.654 3.867 10.45.738.778 4.298-1.458 5.425-3.462 1.126-2.004.932-3.125.932-3.125s.672.217 1.097-.723c.426-.939.336-2.886-1.029-2.78" fill="#F5CCBD"/>
        <path d="M27.27 4.735c.493.614 1.287 1.02 2.095.905 3.116-.448 8.02-3.569 9.436.557.52 1.513 1.222 2.532 1.222 2.532s.873-2.416.978-2.983c.932-5.033-3.472-7.444-11.89-4.409-2.423.874-2.39-.384-4.308.325l2.467 3.073z" fill="#F28D15"/>
        <path d="M49.028 20.191c-1.615-.808-5.532-2.963-7.926 2.133-1.572 3.347-6.1 39.318-6.312 46.71 0 0 18.868 3.587 22.328 2.089 0 0-1.817-47.796-8.09-50.932" fill="#22445D"/>
        <path d="M52.991 29.23c-.06.264-.115.532-.188.784-.678 2.357-7.835-2.654-8.532-.165-.202.723 5.302 8.589 4.593 12.231-1.353 6.944.85 13.82 1.828 16.563.61 1.706-.345 7.67-3.009 10.228-.343.33-1.921 1.554-2.314 1.819 4.857.645 10.417 1.34 12.036.63 0 0-1.16-27.275-4.414-42.09" fill="#0B2739"/>
        <path d="M52.512 57.932c.463.79-.191 1.149-.402 1.905-.258.92.479 3.955-.345 4.703-1.099.999-.621-2.14-1.462-1.769-.299.134-.286 4.792-1.59 2.921-.288-.413-.357-2.914-.878-2.175-.137 1.042-.135 3.43-1.157 3.28-.483-.07-.627-1.474-.544-2.132.414-3.26-.348-1.803-.495.394-.076 1.14-.826 1.39-1.246.21-.87-2.452.805-5.504 2.43-7.115.686-.68 4.657-1.986 5.69-.222" fill="#F5CCBD"/>
        <path d="M46.643 59.1c-.305.223-.715.338-1.043.538-.36.22-.841.471-1.279.47-.719.001-.523-.651-.188-1.03.613-.691 2.698-1.216 3.551-1.423.113-.028-.729 1.218-1.041 1.445" fill="#F5CCBD"/>
        <path d="M42.737 41.303c2.054 4.697 3.62 12.76 4.185 16.836l5.772.564s1.776-23.543-7.93-24.939c0 0-4.081 2.842-2.027 7.54" fill="#22445D"/>
        <path d="M38.414 25.66c.144 2.079 5.79 15.38 8.333 18.822 2.543 3.444 5.925 1.17 6.315-1.65.39-2.818-2.128-18.38-3.856-21.204-2.712-4.434-11.176-1.473-10.792 4.032" fill="#22445D"/>
        <path d="M51.834 40.963c-.216 2.84-5.46 8.714-2.09 6.523 1.91-1.225 2.815-2.626 3.223-3.64 1.301-3.233-.478-14.081-1.634-19.71-1.418-.359-2.326 3.663-1.254 6.511.353.941 1.97 7.475 1.755 10.316" fill="#0B2739"/>
        <path d="M6.011 10.127a1.318 1.318 0 0 0-.616.595c-.24.482-.078.938-.047 1.02M5.088 9.12c-.203.186-.705.698-.903 1.534a3.023 3.023 0 0 0 .082 1.669M17.91 10.305c.07.088.288.378.289.8a1.32 1.32 0 0 1-.41.937M19.188 9.794c.1.256.322.931.13 1.768a3.064 3.064 0 0 1-.816 1.466" stroke="#C2C3C4" stroke-width=".5"/>
    </g>
</svg>
