<svg width="27" height="32" xmlns="http://www.w3.org/2000/svg">
    <g fill-rule="nonzero" fill="none" opacity=".8">
        <path d="M16.27 8.584v1.997h-6.183V8.584c0-1.543 1.35-2.795 3.012-2.795h.157c1.664 0 3.015 1.254 3.015 2.795z" fill="#019BF2"/>
        <path d="M9.131 10.702a2.409 2.409 0 0 0-1.065.577c-.508.48-.767 1.188-.767 2.1v.005l.002.36-.002 4.693c0 .91.259 1.615.767 2.098.484.463 1.175.698 2.055.698h6.094c.88 0 1.573-.232 2.062-.695.506-.481.77-1.186.784-2.096v-5.068c-.012-.91-.278-1.617-.784-2.098a2.424 2.424 0 0 0-1.05-.572v-2.12c0-2.073-1.78-3.756-3.971-3.756h-.157c-2.189 0-3.968 1.68-3.968 3.757v2.117zm17.013-5.854c0 .412.026 10.097-.68 14.285-.926 5.426-10.868 10.348-12 10.893a.996.996 0 0 1-.394.083.897.897 0 0 1-.39-.088C11.548 29.477 1.62 24.554.693 19.131-.026 14.94 0 5.254 0 4.843a.921.921 0 0 1 1.148-.906c2.432.392 3.717-.485 5.35-1.589C8.107 1.263 9.931.036 13.064.036h.014c3.133.002 4.957 1.232 6.563 2.318 1.633 1.104 2.925 1.97 5.392 1.58a.947.947 0 0 1 .76.208c.206.18.345.433.35.706z" fill="#019DF4"/>
        <path d="M10.823 13.386c-.35.006-.996.18-1.291 1.396a4.188 4.188 0 0 0-.068 1.74c.1.606.28 1.129.402 1.417.042.1.106.203.156.266a.418.418 0 0 0 .484.122c.11-.054.236-.186.19-.486a3.973 3.973 0 0 0-.121-.475c-.11-.362-.257-.798-.27-1.11-.016-.416.146-.47.254-.494.182-.04.334.16.479.413.172.3.468.834.71 1.241.217.368.619.761 1.265.734.658-.027 1.143-.28 1.393-1.078.187-.597.315-1.043.52-1.5.236-.525.55-.805.815-.72.246.08.308.323.31.679a8.19 8.19 0 0 1-.061.919c-.01.093-.029.28-.021.383.015.203.102.407.33.439.241.035.435-.16.513-.396.031-.093.057-.236.071-.336.071-.51.09-.852.057-1.374-.037-.61-.155-1.166-.362-1.647-.197-.46-.514-.756-.921-.782-.45-.028-.967.273-1.238.858-.25.539-.45 1.092-.57 1.374-.124.286-.304.463-.582.493-.34.035-.633-.213-.847-.568-.187-.31-.558-.898-.756-1.096-.186-.186-.398-.418-.841-.412" fill="#019DF4"/>
    </g>
</svg>
