<svg width="20" height="20" xmlns="http://www.w3.org/2000/svg">
    <path d="M19.876 4.925a.567.567 0 0 0-.45-.22H5.14a74.713 74.713 0 0 1-.41-2.57C4.508.897 3.34 0 1.948 0H.57A.571.571 0 0 0 0 .57c0 .312.256.569.57.569h1.378c.826 0 1.537.515 1.66 1.195.233 1.307 1.532 8.85 1.663 9.69.165 1.042.552 1.859 1.156 2.428.575.544 1.333.828 2.184.828h6.108c.843 0 1.558-.287 2.127-.854.538-.538.9-1.315 1.202-2.345.134-.458 1.757-6.038 1.933-6.664a.556.556 0 0 0-.105-.492zM8.611 20c-.51 0-.917-.145-1.213-.43-.31-.299-.467-.717-.467-1.25 0-.532.157-.95.467-1.25.296-.284.706-.429 1.213-.429.507 0 .917.145 1.213.43.31.299.467.717.467 1.25 0 .532-.156.95-.467 1.25-.296.284-.703.429-1.213.429zm5.553 0c-.51 0-.917-.145-1.213-.43-.31-.299-.467-.717-.467-1.25 0-.532.156-.95.467-1.25.296-.284.706-.429 1.213-.429.507 0 .917.145 1.213.43.307.299.467.717.467 1.25 0 .532-.157.95-.467 1.25-.296.284-.703.429-1.213.429z" fill="#FFF" fill-rule="nonzero"/>
</svg>
