<svg width="34" height="34" xmlns="http://www.w3.org/2000/svg">
    <path d="M33.01 8.323a.93.93 0 0 0-.739-.36H8.813a123.05 123.05 0 0 1-.673-4.227C7.775 1.699 5.858.225 3.572.225H1.309a.938.938 0 0 0-.935.936c0 .515.42.936.935.936h2.263c1.356 0 2.525.847 2.726 1.966C6.681 6.212 8.813 18.618 9.028 20c.272 1.713.908 3.057 1.899 3.993.944.894 2.188 1.362 3.586 1.362h10.03c1.384 0 2.557-.473 3.492-1.404.884-.885 1.478-2.163 1.973-3.858.22-.753 2.885-9.929 3.175-10.959a.915.915 0 0 0-.173-.81zM14.513 33.116c-.837 0-1.505-.239-1.992-.707-.51-.492-.767-1.18-.767-2.055 0-.876.258-1.564.767-2.055.487-.468 1.16-.707 1.992-.707.832 0 1.506.239 1.992.707.51.491.767 1.18.767 2.055 0 .875-.257 1.563-.767 2.055-.486.468-1.155.707-1.992.707zm9.118 0c-.837 0-1.506-.239-1.992-.707-.51-.492-.767-1.18-.767-2.055 0-.876.257-1.564.767-2.055.486-.468 1.16-.707 1.992-.707.832 0 1.505.239 1.992.707.505.491.766 1.18.766 2.055 0 .875-.257 1.563-.766 2.055-.487.468-1.155.707-1.992.707z" fill="#0B2739" fill-rule="nonzero"/>
</svg>
