<svg width="10" height="10" xmlns="http://www.w3.org/2000/svg">
 <defs>
  <filter id="a"/>
 </defs>
 <g>
  <title>Layer 1</title>
  <g stroke="null" id="svg_1" fill-rule="evenodd" fill="none" filter="url(#a)">
   <path stroke="null" id="svg_2" fill="#0B2739" d="m0,0.91989a0.48158,0.88874 0 0 1 0.17658,-0.67713a0.59548,1.09893 0 0 1 0.78047,0.05361l4.04837,7.2975l3.9704,-7.29327a0.59548,1.09893 0 0 1 0.77971,-0.05925a0.464,0.85629 0 0 1 0.05045,1.27668l-0.01147,0.02116l-4.3763,8.03529a0.57408,1.05943 0 0 1 -0.40514,0.30048a0.58096,1.07212 0 0 1 -0.40896,-0.29342l-4.45657,-8.03812a0.46783,0.86334 0 0 1 -0.14753,-0.62353"/>
  </g>
 </g>
</svg>